<svg xmlns="http://www.w3.org/2000/svg" width="512" height="512" viewBox="0 0 512 512" version="1.1">
	<path d="M 188.097 58.612 C 162.695 62.869, 137.666 75.771, 117.777 94.861 C 100.022 111.903, 87.827 131.063, 80.502 153.425 C 75.064 170.024, 73.599 179.987, 73.581 200.500 C 73.556 226.903, 76.938 241.726, 88.298 265 C 91.653 271.875, 94.543 277.752, 94.719 278.061 C 94.896 278.369, 90.768 280.559, 85.547 282.927 C 60.053 294.489, 45.414 309.963, 41.998 328.960 C 41.315 332.758, 41.150 337.291, 41.598 339.960 C 42.017 342.457, 42.399 353.950, 42.448 365.500 C 42.529 384.802, 42.724 387.026, 44.856 393 C 53.714 417.821, 79.173 437.306, 113 445.157 C 125.690 448.102, 153.047 448.794, 167.440 446.535 C 194.718 442.252, 219.166 429.512, 233.217 412.258 L 235.858 409.016 243.747 416.810 C 259.569 432.442, 280.403 443.238, 305.232 448.670 C 316.845 451.211, 347.780 451.219, 360.339 448.685 C 397.138 441.261, 426.236 420.942, 437.101 395.082 C 440.620 386.706, 444.257 363.835, 444.270 350 C 444.295 322.948, 429.751 298.725, 403.160 281.533 C 382.721 268.317, 359.524 262.012, 331.315 262.004 L 317.130 262 321.011 253.717 C 335.230 223.375, 338.960 190.153, 331.988 155.941 C 324.387 118.644, 300.965 87.119, 268.947 71.093 C 258.203 65.716, 240.967 60.248, 229.143 58.465 C 217.261 56.674, 199.276 56.738, 188.097 58.612 M 191.500 65.521 C 175.802 68.414, 159.411 75.551, 147 84.896 C 132.672 95.683, 113.324 118.521, 103.702 136 C 90.803 159.435, 84.224 192.079, 86.879 219.467 C 89.725 248.818, 100.800 276.513, 116.483 293.500 C 118.874 296.089, 119.417 296.442, 118.024 294.500 C 97.338 265.671, 88.069 238.941, 88.028 208 C 87.950 149.816, 118.096 101.743, 168.500 79.669 C 186.682 71.707, 198.410 69.116, 220 68.291 C 236.285 67.668, 236.435 67.642, 231.500 66.274 C 223.940 64.179, 201.114 63.749, 191.500 65.521 M 205.661 85.062 C 191.663 87.004, 172.563 95.316, 159.298 105.238 C 144.188 116.540, 128.481 135.965, 120.626 153.063 C 111.740 172.407, 108.518 189.666, 109.261 213.955 C 109.679 227.652, 110.227 232.221, 112.442 240.500 C 117.576 259.691, 127.036 276.345, 139.992 289 C 177.381 325.521, 239.410 322.086, 277.961 281.360 C 295.429 262.906, 307.778 239.154, 313.119 213.734 C 315.681 201.543, 316.141 180.591, 314.101 169 C 311.173 152.356, 304.015 134.468, 295.495 122.500 C 290.567 115.579, 279.640 104.836, 272.759 100.147 C 265.382 95.120, 252.292 89.223, 243.500 86.967 C 234.156 84.569, 215.854 83.647, 205.661 85.062 M 205.164 112.052 C 179.030 116.734, 153.367 134.878, 139.152 158.723 C 121.913 187.642, 118.808 221.758, 131.037 247.893 C 144.652 276.989, 175.661 294.786, 209 292.640 C 233.350 291.073, 253.467 281.768, 269.895 264.473 C 282.459 251.247, 290.875 236.665, 295.235 220.570 C 298.445 208.721, 298.424 185.079, 295.193 173 C 287.435 143.997, 266.369 121.491, 239.984 114.017 C 231.358 111.573, 213.472 110.564, 205.164 112.052 M 208 126.122 C 186.170 131.071, 169.695 139.798, 165.071 148.861 C 162.400 154.096, 160.680 163.903, 161.192 170.978 C 161.791 179.259, 163.239 180.416, 166.059 174.869 C 169.538 168.029, 182.321 156.023, 190.824 151.613 C 194.851 149.523, 198.360 148.026, 198.620 148.286 C 198.879 148.546, 196.142 150.864, 192.536 153.437 C 172.951 167.413, 162.375 185.378, 161.298 206.500 C 160.042 231.140, 171.572 250.928, 193.341 261.492 C 201.185 265.298, 202.039 265.941, 199.288 265.968 C 195.055 266.010, 185.737 262.494, 179.500 258.501 C 176.750 256.740, 170.781 251.385, 166.236 246.600 C 161.690 241.815, 157.528 238.174, 156.986 238.509 C 156.444 238.844, 156 241.341, 156 244.059 C 156 246.777, 155.556 249, 155.014 249 C 154.472 249, 152.837 247.200, 151.381 245 C 147.921 239.771, 146.567 239.856, 147.403 245.250 C 149.811 260.795, 167.493 277.700, 187.500 283.586 C 195.727 286.006, 211.863 285.781, 222.198 283.103 C 238.779 278.806, 252.345 270.655, 265.014 257.376 C 282.875 238.655, 292.015 212.200, 289.115 187.615 C 286.213 163.011, 275.395 144.805, 257.360 134.178 C 246.098 127.542, 239.395 125.721, 225 125.390 C 218.125 125.231, 210.475 125.561, 208 126.122 M 313.530 270.221 L 310.611 272.731 329.556 272.720 C 350.103 272.709, 359.740 273.990, 372.973 278.491 C 381.175 281.280, 396.897 289.377, 404.500 294.727 L 409.500 298.246 405.500 294.050 C 395.969 284.054, 377.407 274.811, 359.160 270.972 C 352.999 269.677, 343.513 268.718, 332.974 268.326 L 316.448 267.710 313.530 270.221 M 322 281.696 C 320.075 281.902, 315.182 282.788, 311.127 283.663 C 304.486 285.097, 303.062 285.863, 296.771 291.378 C 282.499 303.888, 278.310 307.251, 270.500 312.468 C 266.100 315.407, 259.963 319.048, 256.862 320.559 L 251.225 323.306 250.561 336.403 C 249.802 351.394, 250.882 357.245, 256.281 367.380 C 264.647 383.085, 283.446 396.219, 307.549 403.198 C 314.542 405.223, 317.668 405.499, 333.500 405.492 C 349.928 405.485, 352.396 405.246, 361.754 402.751 C 391.644 394.784, 412.001 375.711, 416.015 351.913 C 418.857 335.062, 411.161 318.241, 393.849 303.464 C 375.512 287.811, 346.608 279.054, 322 281.696 M 94.989 286.489 C 77.927 292.520, 60.757 305.883, 54.349 318.117 C 51.837 322.913, 51.528 324.535, 51.515 333 C 51.502 341.362, 51.830 343.172, 54.256 348.112 C 57.401 354.516, 66.814 365.225, 73.814 370.364 C 80.146 375.012, 92.925 381.298, 101.241 383.856 C 125.915 391.445, 163.773 390.691, 188.656 382.114 C 208.084 375.418, 225.094 361.738, 232.322 346.999 C 236.544 338.387, 238.095 332.468, 235.941 333.186 C 235.191 333.436, 233.105 336.551, 231.304 340.107 C 220.418 361.611, 198.126 376.711, 169.500 381.972 C 159.702 383.773, 141.204 384.337, 130.500 383.161 C 99.970 379.807, 71.890 365.971, 60.920 348.875 C 54.773 339.296, 54.019 326.764, 59.001 316.997 C 63.509 308.162, 78.399 296.698, 92.232 291.415 C 100.775 288.151, 101.508 287.654, 99.792 286.281 C 98.894 285.563, 97.430 285.626, 94.989 286.489 M 319.831 293.958 C 304.022 296.845, 292.312 302.632, 282.394 312.459 C 278.485 316.332, 274.313 321.413, 273.123 323.751 C 267.014 335.748, 266.575 349.632, 271.958 360.567 C 275.879 368.532, 286.940 379.158, 296.564 384.207 C 335.574 404.674, 377.403 396.988, 393.730 366.354 C 407.820 339.920, 390.854 308.543, 356.227 296.993 C 348.095 294.280, 344.696 293.696, 335.500 293.427 C 329.450 293.250, 322.399 293.490, 319.831 293.958 M 100.063 297.027 C 88.494 301.188, 75.346 311.584, 71.488 319.622 C 69.093 324.610, 68.410 333.822, 70.011 339.539 C 73.764 352.945, 90.978 365.845, 112 371.006 C 124.073 373.970, 144.545 374.693, 157.237 372.604 C 177.130 369.329, 194.177 361.940, 205.662 351.614 C 210.152 347.577, 217 338.547, 217 336.662 C 217 336.298, 213.904 336, 210.120 336 L 203.240 336 199.168 341.394 C 192.629 350.054, 183.268 356.910, 172.500 360.924 C 157.876 366.376, 125.251 363.842, 108.500 355.955 C 93.805 349.035, 86.014 336.092, 90.056 325.315 C 93.080 317.252, 100.446 310.654, 110.610 306.903 C 113.850 305.707, 116.697 304.555, 116.938 304.343 C 117.757 303.622, 108.590 295, 107.042 295.036 C 106.194 295.056, 103.053 295.952, 100.063 297.027 M 324.254 304.441 C 311.953 307.421, 301.461 315.244, 297.472 324.411 C 292.207 336.511, 293.068 348.425, 299.927 358.394 C 305.244 366.123, 303.252 367.829, 297.581 360.403 C 293.357 354.871, 290.244 346.930, 289.364 339.443 C 288.971 336.098, 288.280 334.068, 287.608 334.285 C 286.999 334.481, 284.723 337.706, 282.552 341.452 L 278.604 348.263 280.329 354.840 C 282.339 362.504, 285.161 367.642, 290.998 374.266 C 298.913 383.248, 309.949 387.851, 325.640 388.717 C 352.876 390.219, 377.135 378.756, 385.784 360.296 C 388.141 355.266, 388.500 353.245, 388.500 345 C 388.500 336.514, 388.192 334.893, 385.619 329.815 C 379.447 317.633, 365.641 307.683, 350.500 304.504 C 342.076 302.736, 331.399 302.710, 324.254 304.441 M 111.279 314.086 C 101.659 319.964, 98.860 323.404, 98.212 330.146 C 97.550 337.031, 100.024 342.814, 106.038 348.439 C 115.198 357.007, 127.775 360.219, 144.182 358.179 C 163.819 355.738, 177.396 350.522, 186.483 341.928 C 189.517 339.058, 192 336.413, 192 336.050 C 192 335.688, 190.088 335.290, 187.750 335.167 C 170.338 334.248, 153.854 328.254, 132.397 315.038 C 127.006 311.717, 121.898 309.014, 121.047 309.031 C 120.196 309.048, 115.801 311.323, 111.279 314.086 M 290.277 317.098 C 286.620 319.440, 280.444 327.315, 281.887 327.796 C 282.409 327.970, 285.010 326.451, 287.668 324.422 C 290.326 322.392, 293.924 320.052, 295.663 319.222 C 297.592 318.301, 298.624 317.183, 298.306 316.356 C 297.552 314.391, 293.989 314.721, 290.277 317.098 M 430.157 324 C 430.154 324.825, 430.759 327.075, 431.500 329 C 432.375 331.271, 432.859 331.798, 432.879 330.500 C 432.896 329.400, 432.292 327.150, 431.536 325.500 C 430.781 323.850, 430.160 323.175, 430.157 324 M 435.079 348.257 C 434.952 355.922, 432.161 372.556, 430.085 378.018 C 422.380 398.296, 394.459 419.417, 366.617 426.028 C 343.983 431.403, 315.763 430.540, 295 423.839 C 279.491 418.833, 268.586 413.116, 254.961 402.850 C 250.525 399.507, 246.606 397.061, 246.252 397.414 C 245.275 398.391, 258.740 411.654, 265.243 416.121 C 277.587 424.599, 294.727 431.346, 311 434.133 C 321.506 435.932, 347.369 435.681, 358.636 433.670 C 383.504 429.232, 406.601 417.548, 418.383 403.448 C 427.277 392.804, 432.804 380.809, 434.026 369.500 C 434.442 365.650, 435.339 359.521, 436.018 355.879 C 436.904 351.127, 436.957 348.446, 436.205 346.379 C 435.211 343.647, 435.154 343.743, 435.079 348.257 M 233.451 385.250 C 220.996 405.557, 196.731 420.375, 167.615 425.452 C 156.255 427.433, 131.297 427.489, 120.328 425.559 C 94.983 421.099, 72.672 408.746, 58.989 391.599 C 56.532 388.519, 54.151 386, 53.698 386 C 51.622 386, 59.286 397.219, 66.640 404.947 C 78.511 417.421, 90.923 424.259, 111.500 429.661 C 125.109 433.233, 152.926 434.139, 167.792 431.493 C 200.145 425.736, 226.549 409.353, 234.806 389.913 C 236.595 385.701, 238.321 379, 237.617 379 C 237.434 379, 235.559 381.813, 233.451 385.250 M 412.151 384.052 C 404.276 393.196, 389.839 402.907, 375.555 408.667 C 365.827 412.591, 367.205 413.015, 377.832 409.369 C 393.895 403.858, 406.234 395.978, 412.334 387.335 C 415.060 383.472, 417.413 378.999, 416.718 379 C 416.598 379.001, 414.543 381.274, 412.151 384.052 M 66 385.810 C 66 387.972, 77.857 397.234, 85.500 401.043 C 89.900 403.236, 97.824 406.118, 103.109 407.447 C 114.107 410.213, 137.187 412.348, 145.510 411.370 C 152.551 410.542, 150.818 409.037, 142.801 409.015 C 134.062 408.992, 114.996 406.240, 107.353 403.900 C 96.589 400.604, 84.604 395.387, 76.521 390.481 C 67.897 385.245, 66 384.403, 66 385.810 M 266.326 394.376 C 276.038 403.491, 293.626 411.126, 310 413.333 C 313.171 413.760, 311.228 412.818, 303.419 410.143 C 289.746 405.459, 281.104 401.458, 272.157 395.670 C 261.480 388.763, 259.996 388.434, 266.326 394.376" stroke="none" fill="black" fill-rule="evenodd"/>
</svg>