<?xml version="1.0" standalone="no"?>
<!DOCTYPE svg PUBLIC "-//W3C//DTD SVG 20010904//EN"
 "http://www.w3.org/TR/2001/REC-SVG-20010904/DTD/svg10.dtd">
<svg version="1.0" xmlns="http://www.w3.org/2000/svg"
 width="1024.000000pt" height="1023.000000pt" viewBox="0 0 1024.000000 1023.000000"
 preserveAspectRatio="xMidYMid meet">

<g transform="translate(0.000000,1023.000000) scale(0.100000,-0.100000)"
fill="#000000" stroke="none">
<path d="M0 5115 l0 -5115 5120 0 5120 0 0 5115 0 5115 -5120 0 -5120 0 0
-5115z m5652 3944 c29 -6 59 -16 65 -21 7 -6 19 -8 27 -5 8 3 17 -1 20 -9 3
-8 17 -14 31 -14 15 0 24 -4 20 -9 -3 -6 -18 -6 -38 0 -17 5 -48 9 -67 10 -19
0 -29 3 -22 6 21 8 13 23 -12 23 -13 0 -39 7 -57 15 -41 17 -35 18 33 4z m293
-80 c5 -5 -2 -9 -18 -9 -15 0 -27 5 -27 11 0 6 -9 9 -20 6 -11 -3 -17 -1 -14
5 7 10 64 1 79 -13z m35 -19 c-11 -7 -6 -10 20 -9 30 0 32 2 15 10 -16 7 -14
8 10 3 16 -3 32 -9 35 -13 3 -4 16 -7 30 -8 14 0 50 -8 80 -17 30 -9 62 -18
69 -20 16 -3 28 -26 14 -26 -4 0 -48 11 -98 24 -49 13 -110 27 -135 31 -25 4
-48 9 -53 12 -10 6 1 23 16 23 7 0 6 -4 -3 -10z m-1165 -30 c-27 -12 -35 -12
-35 0 0 6 12 10 28 9 24 0 25 -1 7 -9z m298 -37 c-7 -2 -19 -2 -25 0 -7 3 -2
5 12 5 14 0 19 -2 13 -5z m1215 -10 c31 -12 40 -19 30 -25 -9 -7 -5 -8 12 -4
15 3 42 -3 65 -15 22 -10 31 -16 20 -13 -11 4 -33 8 -50 9 -26 2 -94 17 -132
30 -12 4 -7 35 5 35 4 0 26 -7 50 -17z m-848 -17 c294 -26 435 -48 625 -101
49 -13 91 -22 93 -20 5 4 -23 17 -63 28 -11 4 -1 5 23 3 23 -2 40 0 37 4 -6 9
28 1 78 -19 16 -6 33 -9 38 -5 5 3 9 0 9 -5 0 -6 8 -11 18 -12 15 0 14 -2 -3
-9 -14 -7 -8 -8 19 -3 34 5 38 3 33 -11 -5 -12 -1 -16 16 -16 12 0 31 -7 41
-15 23 -17 40 -20 31 -5 -3 6 -2 10 3 10 6 0 13 -7 16 -16 4 -10 14 -14 26
-11 11 3 18 1 15 -3 -3 -5 5 -12 17 -16 46 -14 355 -135 408 -160 67 -31 235
-139 323 -207 21 -16 30 -18 39 -9 17 17 55 15 62 -3 3 -8 12 -15 20 -15 8 0
35 -20 61 -44 43 -41 107 -91 266 -207 89 -65 491 -449 570 -545 246 -298 402
-553 544 -894 64 -153 117 -258 109 -215 -9 49 10 10 44 -90 32 -94 55 -192
48 -203 -2 -4 0 -32 5 -62 18 -115 21 -182 7 -178 -8 3 -16 29 -20 65 -7 67
-61 236 -103 323 -14 30 -24 47 -21 38 3 -10 -1 -30 -9 -45 -13 -24 -15 -25
-16 -8 0 19 -1 19 -8 1 -6 -15 -10 -10 -26 25 -83 195 -223 486 -292 606 -82
143 -224 361 -270 416 -13 16 -20 34 -17 39 4 6 2 8 -4 4 -9 -5 -72 62 -72 78
0 14 -389 395 -450 441 -36 27 -99 77 -140 110 -41 34 -113 89 -160 123 -105
76 -160 123 -140 121 8 -1 22 -1 30 0 12 1 12 4 -2 12 -10 5 -18 15 -18 20 0
22 -66 89 -87 89 -12 0 -79 30 -150 68 -146 77 -238 117 -255 114 -5 -1 -8 3
-8 9 0 6 -7 9 -15 5 -8 -3 -15 -1 -15 5 0 6 -7 8 -16 5 -8 -3 -13 -2 -10 3 6
9 -101 61 -126 61 -8 0 -18 4 -24 10 -12 12 -202 78 -378 131 -329 99 -692
149 -1087 149 -615 0 -1225 -134 -1724 -380 -176 -86 -259 -135 -475 -278
-270 -180 -428 -307 -622 -502 -293 -296 -562 -671 -746 -1042 -88 -177 -120
-254 -178 -433 -25 -77 -54 -165 -65 -195 l-19 -55 4 50 c8 93 134 428 259
687 230 480 556 904 942 1229 180 151 328 258 475 346 47 28 116 70 154 93
113 69 316 166 499 239 160 64 227 88 397 139 130 40 439 102 590 119 85 9
156 19 158 22 6 15 504 12 682 -3z m-1367 -53 c-7 -2 -21 -2 -30 0 -10 3 -4 5
12 5 17 0 24 -2 18 -5z m2803 -148 c10 -8 14 -15 8 -15 -5 0 -19 7 -30 15 -10
8 -14 15 -8 15 5 0 19 -7 30 -15z m103 -54 c21 -13 23 -41 3 -33 -12 4 -13 7
-2 10 9 3 5 9 -11 18 -13 7 -19 13 -14 13 6 1 16 -3 24 -8z m66 -33 c14 -6 25
-15 25 -20 0 -13 -10 -10 -37 12 -29 23 -25 25 12 8z m165 -82 c79 -22 130
-53 285 -177 145 -116 150 -122 135 -146 -9 -14 -10 -14 -7 -2 3 10 -7 28 -25
45 -25 24 -29 25 -19 7 6 -12 15 -25 21 -28 5 -3 7 -12 4 -20 -7 -18 -44 7
-229 155 -72 58 -159 123 -193 145 -33 22 -61 44 -62 49 0 5 6 4 13 -1 6 -6
41 -18 77 -27z m540 -381 c30 -25 87 -71 125 -102 92 -74 109 -92 129 -130 12
-23 24 -33 40 -33 29 0 128 -82 202 -167 94 -108 299 -367 357 -452 82 -119
105 -161 123 -222 9 -30 38 -83 64 -119 55 -75 95 -147 111 -201 10 -31 16
-37 37 -36 23 2 29 -7 64 -88 86 -199 200 -603 178 -630 -6 -7 -8 -32 -6 -56
3 -24 3 -35 0 -24 -3 11 -11 25 -18 30 -7 6 -18 33 -26 60 -7 28 -18 64 -25
80 -7 17 -25 75 -40 130 -57 212 -78 282 -106 343 -16 35 -32 74 -35 88 -3 13
-12 28 -19 32 -18 10 -48 79 -40 92 8 12 -41 100 -55 100 -6 0 -10 7 -10 16 0
9 -24 41 -54 70 -30 30 -79 97 -111 152 -56 98 -132 205 -255 364 -35 45 -146
165 -245 265 -99 99 -172 180 -162 178 25 -6 22 28 -7 62 -13 15 -28 24 -33
20 -4 -5 0 -14 10 -21 20 -16 23 -36 3 -36 -14 0 -111 77 -228 181 -36 32 -71
59 -77 59 -16 0 -13 21 5 41 20 22 27 18 104 -46z m-2780 4 c0 -5 -4 -7 -10
-4 -5 3 -10 1 -10 -4 0 -6 5 -11 10 -11 6 0 10 -5 10 -11 0 -5 -4 -8 -9 -5 -5
4 -12 0 -14 -6 -3 -7 -6 2 -6 20 -1 22 4 32 14 32 8 0 15 -5 15 -11z m53 -35
c-4 -11 11 -14 88 -14 254 0 820 -119 1089 -229 87 -36 100 -38 100 -12 0 16
5 17 38 11 48 -9 264 -85 291 -102 17 -10 21 -23 21 -60 0 -54 -27 -29 254
-232 135 -98 198 -134 180 -104 -5 8 0 9 17 4 13 -5 33 -9 45 -10 45 -5 56
-36 13 -36 -12 0 -19 -4 -17 -8 2 -5 54 -50 117 -100 118 -95 172 -150 309
-319 170 -211 269 -362 338 -515 30 -66 63 -132 73 -147 21 -29 81 -209 81
-241 0 -12 10 -25 23 -31 29 -13 92 -102 75 -108 -6 -2 -19 7 -27 19 -40 60
-45 63 -111 64 l-64 1 -7 -38 c-7 -42 -19 -61 -19 -30 0 29 -47 114 -80 143
-26 23 -42 60 -45 100 -2 37 -29 110 -39 110 -14 0 -18 7 -70 123 -40 88 -147
257 -212 333 -24 28 -88 109 -144 179 -84 108 -98 131 -87 144 17 22 -39 -13
-75 -47 l-27 -25 -118 106 c-65 58 -147 128 -183 155 -76 57 -293 198 -364
235 -55 29 -79 58 -69 83 5 14 3 16 -11 11 -10 -4 -15 -3 -11 3 4 6 -8 8 -31
4 l-37 -6 17 27 c10 15 15 29 13 32 -6 5 -47 -37 -47 -48 0 -4 -12 -6 -27 -4
-16 2 -32 4 -38 4 -31 3 -36 17 -23 59 7 23 19 42 27 42 8 0 41 -10 73 -22 53
-19 59 -24 55 -45 -3 -15 1 -23 9 -23 8 0 14 10 14 21 0 18 2 19 15 9 12 -10
15 -9 15 4 0 10 5 14 10 11 17 -11 11 17 -7 31 -16 12 -14 13 12 3 41 -14 95
-49 95 -60 0 -5 4 -9 9 -9 41 0 406 -247 531 -360 43 -38 70 -47 76 -25 5 20
-222 192 -416 315 -58 36 -130 85 -160 108 -57 44 -284 162 -310 162 -9 0 -61
16 -116 35 -191 65 -539 149 -729 176 -49 6 -94 15 -100 18 -5 4 -27 6 -47 5
-21 0 -39 2 -39 5 -1 3 -3 16 -4 28 -3 32 -13 53 -25 53 -6 0 -8 -17 -5 -45
l6 -45 -133 0 -133 0 -1 31 c-1 18 3 28 10 26 6 -3 18 3 26 11 13 14 12 15 -3
9 -9 -3 -17 -2 -17 4 0 6 9 13 20 16 14 4 20 14 20 35 0 25 2 28 14 18 8 -6
12 -18 9 -26z m-148 -85 c0 -37 -3 -42 -25 -44 -62 -7 -343 -57 -419 -75 -71
-17 -298 -80 -429 -119 -18 -5 -30 -6 -27 -1 3 5 20 12 38 16 l32 8 -30 7
c-20 4 -23 7 -10 8 11 0 29 7 40 14 25 17 189 68 309 96 49 11 92 25 95 29 3
5 20 17 36 26 l30 17 -27 -4 c-16 -2 -28 -1 -28 3 0 11 187 43 211 37 10 -3
17 -1 14 3 -6 9 24 13 130 18 l61 3 -1 -42z m26 -79 c6 0 8 -8 4 -19 -7 -24
11 -71 28 -71 8 0 26 -13 40 -30 15 -16 31 -30 35 -30 9 0 42 -64 42 -80 0 -6
-25 -10 -55 -10 -55 0 -75 14 -32 23 12 3 4 5 -18 4 -22 0 -45 -4 -51 -9 -6
-4 -18 -2 -27 5 -13 10 -15 28 -10 120 5 88 9 107 20 103 8 -4 19 -6 24 -6z
m359 -65 l1 -30 14 32 c7 17 22 36 32 42 18 9 19 6 15 -47 -2 -36 -10 -62 -20
-69 -13 -10 -13 -17 -4 -38 14 -31 37 -41 56 -26 11 9 15 9 18 0 2 -7 59 -22
134 -34 165 -28 247 -46 241 -51 -3 -3 -79 9 -169 26 -107 19 -197 30 -257 30
-101 0 -95 -5 -92 80 3 86 13 143 22 129 5 -8 9 -27 9 -44z m138 19 c28 -8 29
-24 2 -24 -15 0 -22 -9 -27 -30 -3 -17 -10 -29 -16 -27 -14 4 -16 48 -3 70 12
19 12 19 44 11z m132 -33 c0 -9 -41 -23 -48 -16 -2 2 -1 8 3 14 8 13 45 15 45
2z m-1619 -75 c16 10 9 -6 -12 -27 -20 -20 -78 -49 -99 -49 -18 0 -11 32 9 37
16 4 18 11 14 38 -5 29 -2 34 18 37 16 3 30 -4 42 -19 10 -13 23 -21 28 -17z
m1299 -23 c0 -52 -1 -54 -25 -51 -14 2 -26 6 -27 10 -1 4 -4 27 -8 51 l-6 43
33 1 33 1 0 -55z m-1244 32 c-8 -8 -20 -15 -27 -15 -7 0 -4 6 7 15 25 19 40
19 20 0z m1730 -66 c7 -6 17 -8 22 -5 10 6 186 -37 329 -80 48 -14 97 -28 109
-31 18 -4 53 -43 38 -43 -4 0 -50 16 -103 34 -53 19 -114 39 -136 45 -22 5
-109 28 -194 50 -85 22 -164 42 -175 45 -12 2 6 2 38 0 33 -3 65 -9 72 -15z
m-1926 -28 c0 -12 -23 -28 -72 -50 -40 -19 -83 -43 -95 -54 l-23 -20 0 25 c0
15 -2 32 -5 40 -3 9 10 19 41 30 45 16 46 16 54 -5 l8 -22 9 23 c10 25 62 64
75 56 4 -3 8 -13 8 -23z m-243 -33 c-3 -8 -6 -5 -6 6 -1 11 2 17 5 13 3 -3 4
-12 1 -19z m2733 -11 c0 -15 -50 -31 -62 -19 -8 8 -5 10 13 6 13 -2 18 -2 12
2 -22 10 -14 22 12 20 14 0 25 -4 25 -9z m-1773 -3 c-3 -3 -12 -4 -19 -1 -8 3
-5 6 6 6 11 1 17 -2 13 -5z m-90 -20 c-3 -3 -12 -4 -19 -1 -8 3 -5 6 6 6 11 1
17 -2 13 -5z m-70 -10 c-3 -3 -12 -4 -19 -1 -8 3 -5 6 6 6 11 1 17 -2 13 -5z
m-52 -14 c-11 -5 -27 -9 -35 -9 -9 0 -8 4 5 9 11 5 27 9 35 9 9 0 8 -4 -5 -9z
m1128 -17 c-7 -2 -21 -2 -30 0 -10 3 -4 5 12 5 17 0 24 -2 18 -5z m75 -10
c-10 -2 -28 -2 -40 0 -13 2 -5 4 17 4 22 1 32 -1 23 -4z m-1584 -19 c9 -22 2
-27 -24 -19 -17 5 -19 10 -9 21 15 18 25 18 33 -2z m91 -4 c5 8 11 8 21 -1 9
-7 29 -9 54 -5 62 10 48 -1 -32 -25 -40 -11 -87 -30 -104 -40 -17 -10 -40 -19
-51 -19 -10 0 -24 -5 -31 -12 -6 -6 -14 -9 -18 -6 -3 4 8 13 24 22 16 8 32 22
35 31 4 9 19 15 36 15 30 0 47 22 34 43 -4 7 0 7 9 -1 12 -9 18 -10 23 -2z
m2377 -86 c44 -31 48 -37 13 -24 -36 14 -85 40 -85 45 0 13 38 2 72 -21z
m1169 9 c13 -16 12 -17 -3 -4 -10 7 -18 15 -18 17 0 8 8 3 21 -13z m-3731 -32
c0 -14 -59 -19 -64 -6 -2 8 9 12 30 13 19 1 34 -2 34 -7z m3997 -215 c16 -22
50 -70 76 -106 66 -88 80 -116 68 -137 -7 -14 -22 3 -76 88 -37 57 -76 116
-87 132 -54 78 -68 101 -68 110 0 15 55 -39 87 -87z m73 43 c0 -6 -4 -7 -10
-4 -5 3 -10 11 -10 16 0 6 5 7 10 4 6 -3 10 -11 10 -16z m-3235 -99 c11 -17
83 -60 102 -61 30 -1 -17 -17 -68 -23 -24 -3 -54 -8 -65 -11 -30 -9 -64 11
-64 37 0 42 76 88 95 58z m1084 -154 c2 -86 -6 -65 -12 34 -3 51 -2 73 3 55 4
-16 8 -57 9 -89z m-1191 72 c19 -19 15 -24 -29 -37 -53 -16 -71 -2 -33 28 30
24 45 26 62 9z m962 -29 c50 -14 89 -32 118 -56 24 -19 41 -37 39 -39 -2 -2
-46 18 -98 44 -52 26 -107 53 -124 59 -50 18 -14 14 65 -8z m-640 1 c0 -5 -14
-10 -30 -10 -43 0 -170 -46 -197 -72 l-23 -21 0 47 c0 40 3 47 18 42 9 -3 42
1 72 8 66 17 160 20 160 6z m610 -70 c134 -43 160 -54 160 -71 0 -15 -42 -10
-125 17 -48 16 -114 28 -165 31 -47 3 -111 14 -142 24 -106 35 -273 23 -438
-31 -36 -11 -85 -23 -110 -25 -25 -2 -36 -2 -25 1 11 4 25 10 30 14 6 4 42 24
81 44 64 32 77 35 153 35 46 0 86 3 89 6 4 4 86 5 182 2 173 -4 177 -5 310
-47z m-175 -39 c33 -6 20 -9 -80 -16 -118 -9 -125 -21 -13 -24 52 -1 152 -20
145 -27 -4 -5 -281 13 -337 21 -14 2 -35 4 -48 4 -13 1 -21 5 -17 10 3 5 1 12
-5 16 -5 3 -10 10 -10 14 0 11 313 13 365 2z m2750 -17 c22 -33 13 -59 -15
-44 -23 13 -43 47 -35 60 11 18 32 11 50 -16z m-2294 -82 c10 -50 13 -54 35
-49 21 4 26 -1 36 -34 14 -49 14 -49 -125 -142 -131 -87 -156 -101 -165 -91
-4 4 -1 9 6 11 9 4 5 12 -13 28 -14 13 -25 31 -25 39 0 12 90 86 105 86 3 0
11 4 18 10 7 5 36 28 65 51 l53 40 -5 72 c-5 74 -2 70 15 -21z m-633 7 c97 -1
191 -5 207 -9 17 -4 -66 -7 -182 -6 l-213 1 1 30 c1 23 3 25 6 8 4 -23 6 -23
181 -24z m748 -109 c5 -36 18 -58 63 -108 68 -77 61 -66 116 -182 27 -57 41
-98 35 -104 -5 -5 -45 -2 -101 8 -75 14 -339 45 -386 46 -19 0 -39 76 -24 94
18 22 257 186 271 186 9 0 11 12 6 43 -3 23 -8 67 -11 97 l-5 55 15 -45 c8
-25 17 -65 21 -90z m2251 38 c32 -34 108 -168 168 -293 51 -106 74 -163 129
-307 l25 -68 -32 0 c-52 0 -259 29 -306 43 -40 11 -43 15 -75 92 -33 81 -124
258 -158 307 -13 18 -17 36 -13 49 5 13 2 25 -6 30 -10 6 -9 10 6 15 10 4 38
25 61 47 39 37 148 105 170 106 6 1 20 -9 31 -21z m-1602 -68 c8 -13 -5 -13
-25 0 -13 8 -13 10 2 10 9 0 20 -4 23 -10z m70 -31 c15 -14 -7 -10 -35 7 l-25
15 25 -7 c14 -3 29 -10 35 -15z m-1758 -21 c-3 -7 -5 -2 -5 12 0 14 2 19 5 13
2 -7 2 -19 0 -25z m1516 -36 c29 -27 93 -79 142 -116 99 -74 174 -143 249
-229 27 -31 53 -54 59 -50 6 3 7 1 4 -4 -4 -6 2 -18 13 -28 11 -10 20 -14 20
-9 0 13 79 -99 80 -113 0 -7 7 -33 16 -59 17 -51 13 -64 -12 -43 -13 11 -18
11 -21 2 -8 -22 -18 -14 -31 21 -15 41 -34 58 -67 62 -19 2 -25 -3 -25 -16 0
-10 -4 -22 -10 -25 -5 -3 -10 -19 -10 -35 0 -38 -16 -47 -42 -23 -20 16 -21
17 -15 1 11 -30 2 -20 -43 45 -24 34 -84 103 -135 153 -89 88 -94 96 -133 195
-46 119 -78 226 -69 235 7 7 147 -108 231 -189 30 -30 58 -52 61 -49 9 9 -76
95 -164 166 -104 83 -140 115 -152 139 -16 28 -1 20 54 -31z m-3673 28 c0 -5
-5 -10 -11 -10 -5 0 -7 5 -4 10 3 6 8 10 11 10 2 0 4 -4 4 -10z m104 -54 c22
-9 36 -19 33 -22 -9 -9 -100 40 -105 56 -4 12 -1 12 14 -2 10 -9 37 -23 58
-32z m6121 -10 c8 -25 10 -46 5 -46 -9 0 -30 62 -30 89 0 24 11 6 25 -43z
m-45 28 c0 -8 -4 -12 -10 -9 -5 3 -10 10 -10 16 0 5 5 9 10 9 6 0 10 -7 10
-16z m-6185 -12 c-3 -3 -11 0 -18 7 -9 10 -8 11 6 5 10 -3 15 -9 12 -12z
m1205 -6 c0 -2 -21 -20 -47 -41 l-48 -37 45 41 c45 41 50 45 50 37z m53 -30
c-15 -19 -40 -40 -55 -46 -16 -7 -28 -16 -28 -21 0 -5 12 -2 26 7 l26 17 -5
-44 c-6 -55 -27 -107 -63 -156 -42 -58 -136 -153 -166 -169 -30 -16 -88 -19
-88 -5 0 5 -12 13 -26 18 l-26 9 42 51 c22 29 69 74 103 102 79 63 169 155
142 145 -11 -4 15 22 58 59 44 37 81 67 84 67 3 0 -8 -15 -24 -34z m1407 14
c0 -6 -27 -10 -62 -9 -47 1 -57 3 -38 9 36 12 100 12 100 0z m1271 -7 c34 -20
37 -33 9 -33 -26 0 -80 27 -80 40 0 16 39 12 71 -7z m2269 -9 c0 -8 -4 -14
-10 -14 -5 0 -10 9 -10 21 0 11 5 17 10 14 6 -3 10 -13 10 -21z m-3441 -63 c1
-51 -5 -34 -12 29 -4 36 -3 46 3 30 4 -14 8 -40 9 -59z m-116 52 c-13 -2 -35
-2 -50 0 -16 2 -5 4 22 4 28 0 40 -2 28 -4z m1384 -58 c28 -26 35 -37 26 -46
-8 -8 -14 -5 -23 12 -7 13 -22 34 -33 47 -31 34 -13 26 30 -13z m-3283 -84 c3
-4 3 -11 0 -14 -8 -8 -34 3 -34 14 0 11 27 12 34 0z m2065 -10 c7 -13 7 -23
-2 -34 -11 -14 -40 -15 -275 -7 -287 10 -349 16 -370 36 -13 14 8 15 480 22
144 2 158 0 167 -17z m1278 3 c-3 -3 -12 -4 -19 -1 -8 3 -5 6 6 6 11 1 17 -2
13 -5z m103 -53 c0 -11 -8 -6 -25 14 -32 39 -32 55 0 25 14 -13 25 -31 25 -39z
m-36 0 c3 -5 -1 -11 -9 -15 -29 -11 -15 -54 41 -127 31 -41 66 -82 78 -91 11
-9 17 -20 12 -25 -8 -9 -23 8 -117 131 -45 60 -58 84 -53 100 10 31 37 46 48
27z m-1039 -36 c61 -9 124 -20 140 -25 30 -10 30 -10 -5 -5 -19 2 -99 12 -177
22 -79 9 -143 21 -143 25 0 5 17 6 38 3 20 -3 87 -12 147 -20z m43 -40 c247
-31 331 -58 463 -149 49 -33 106 -71 127 -84 37 -23 37 -23 7 -18 -16 3 -82 8
-145 10 l-115 5 149 -15 c116 -11 158 -19 183 -36 19 -11 33 -21 31 -22 -2 -2
-50 0 -106 3 -57 3 -106 3 -108 0 -11 -18 38 -33 134 -42 70 -6 111 -14 118
-23 6 -8 19 -14 28 -14 9 0 16 -7 16 -15 0 -9 6 -12 15 -9 15 6 45 -11 45 -26
0 -13 -92 -21 -107 -8 -11 9 -13 8 -11 -2 2 -7 -37 -33 -96 -64 -87 -45 -108
-51 -171 -54 -58 -3 -80 0 -114 17 -29 15 -69 23 -135 28 l-94 6 -12 46 c-27
108 -90 202 -175 261 -52 36 -67 37 -610 51 -214 6 -415 12 -445 14 -45 3 -48
2 -15 -4 36 -6 33 -7 -40 -14 -44 -5 -98 -10 -120 -12 -22 -3 -87 -18 -145
-35 -111 -32 -150 -37 -150 -19 0 20 51 77 78 87 132 51 1039 77 1383 39 198
-22 243 -35 320 -97 63 -50 91 -59 134 -40 18 8 17 9 -7 9 -17 1 -49 20 -90
54 -35 30 -73 59 -85 66 -37 19 -198 49 -352 65 -79 8 -146 17 -149 20 -2 3 1
12 8 21 17 20 192 20 358 0z m-1264 -11 c4 -9 5 -19 3 -21 -2 -2 -59 -12 -126
-23 -150 -25 -173 -34 -236 -99 -48 -50 -51 -51 -107 -51 -53 0 -83 14 -61 29
6 3 13 16 17 29 4 12 24 31 44 42 27 14 32 19 17 20 -45 2 18 22 158 50 223
45 281 50 291 24z m-2038 -56 c-9 -12 -16 -18 -16 -12 0 6 3 14 8 18 4 4 8 12
8 17 3 20 6 23 11 12 2 -7 -3 -23 -11 -35z m4464 -3 c12 -22 12 -28 -3 -42
-16 -16 -17 -16 -17 2 0 11 -3 30 -6 43 -8 30 9 28 26 -3z m-4633 -32 c-10
-21 -35 -95 -57 -165 -22 -70 -45 -130 -51 -133 -13 -9 -6 21 37 165 20 63 37
123 40 132 6 22 34 51 42 44 3 -3 -2 -23 -11 -43z m4584 -16 c-8 -8 -11 -7
-11 4 0 9 3 19 7 23 4 4 9 2 11 -4 3 -7 -1 -17 -7 -23z m118 -8 c15 -44 14
-54 -5 -38 -15 12 -16 11 -10 -7 5 -15 -3 -30 -29 -58 -19 -21 -35 -42 -35
-47 0 -15 -17 -10 -24 7 -4 10 1 22 11 30 17 13 17 14 -4 20 -21 6 -20 7 8 32
17 15 31 34 33 42 11 57 39 66 55 19z m751 -129 c0 -18 -54 7 -61 28 -7 19 -4
24 14 31 18 7 24 4 34 -22 7 -16 13 -33 13 -37z m647 0 c23 0 43 -4 43 -10 0
-6 -39 -10 -97 -10 -121 0 -203 9 -203 23 0 7 37 8 107 4 58 -4 126 -7 150 -7z
m-2728 -54 c6 -7 25 -53 41 -100 32 -95 30 -99 -30 -92 -19 2 -57 5 -85 6 -45
2 -47 3 -20 10 25 6 26 8 7 9 -13 0 -21 5 -17 10 3 5 -4 12 -15 16 -11 3 -20
15 -20 25 0 11 -11 27 -25 36 l-24 16 22 31 c12 18 27 35 32 39 18 14 122 9
134 -6z m2584 -64 c3 -15 9 -35 12 -44 4 -10 3 -18 -2 -18 -8 0 -43 72 -43 90
0 21 28 -3 33 -28z m95 -15 c3 -47 3 -48 -24 -45 -21 2 -30 11 -40 42 -17 47
-11 58 29 54 31 -3 32 -5 35 -51z m164 29 c16 -36 -6 -76 -41 -76 -27 0 -29 3
-33 46 -2 25 -2 47 0 49 2 2 17 3 34 3 20 -1 33 -8 40 -22z m-112 -2 c0 -17
-22 -14 -28 4 -2 7 3 12 12 12 9 0 16 -7 16 -16z m-7170 -4 c0 -5 -5 -10 -11
-10 -5 0 -7 5 -4 10 3 6 8 10 11 10 2 0 4 -4 4 -10z m536 -57 c-11 -11 -19 6
-11 24 8 17 8 17 12 0 3 -10 2 -21 -1 -24z m4928 10 c10 -24 -2 -29 -19 -7 -8
10 -15 22 -15 26 0 13 28 -3 34 -19z m1463 -29 c-3 -3 -12 -4 -19 -1 -8 3 -5
6 6 6 11 1 17 -2 13 -5z m521 -11 c-10 -2 -26 -2 -35 0 -10 3 -2 5 17 5 19 0
27 -2 18 -5z m425 -7 c4 -10 1 -13 -9 -9 -15 6 -19 23 -5 23 5 0 11 -7 14 -14z
m-350 -3 c-7 -2 -21 -2 -30 0 -10 3 -4 5 12 5 17 0 24 -2 18 -5z m431 -9 c22
-9 20 -24 -3 -24 -28 0 -52 11 -45 21 6 10 26 12 48 3z m-42 -59 c-4 -26 -52
-124 -65 -132 -16 -10 -1 138 15 149 23 15 53 5 50 -17z m-8192 -25 c0 -11 -4
-20 -9 -20 -5 0 -7 9 -4 20 3 11 7 20 9 20 2 0 4 -9 4 -20z m8264 -41 c11 -55
7 -89 -9 -89 -8 0 -15 5 -15 10 0 6 -5 10 -11 10 -5 0 -8 -4 -4 -9 3 -5 1 -12
-5 -16 -5 -3 -10 0 -10 7 -1 8 -6 6 -15 -6 -11 -15 -18 -17 -26 -9 -7 7 -8 17
-3 25 20 31 79 107 85 108 4 0 9 -14 13 -31z m-6706 -101 l3 -97 -58 -3 -58
-3 1 -70 c1 -185 5 -712 4 -727 0 -16 -13 -18 -120 -18 l-120 0 0 163 c0 89
-3 273 -7 410 l-6 248 -134 -3 -134 -3 1 -375 c0 -206 1 -382 2 -390 4 -51 6
-50 -127 -50 l-125 0 0 38 c0 20 -5 201 -10 401 -7 274 -13 367 -22 373 -7 4
-68 8 -134 8 l-121 0 -7 90 c-4 49 -5 93 -2 98 2 4 267 7 588 7 l583 0 3 -97z
m1217 67 c45 -23 66 -42 90 -79 29 -47 30 -54 30 -160 0 -118 -9 -149 -57
-195 l-24 -23 32 -32 c44 -44 57 -100 52 -222 -3 -88 -7 -109 -33 -160 -25
-49 -39 -63 -84 -86 l-54 -28 -276 2 -276 3 -3 43 -3 43 -45 -40 c-54 -47
-104 -61 -224 -61 -100 0 -147 14 -193 58 -69 65 -75 105 -78 483 l-3 316 28
56 c29 60 68 95 120 108 17 4 236 7 487 6 l455 -2 59 -30z m1101 13 c44 -24
91 -81 103 -125 6 -21 11 -104 11 -184 0 -154 -11 -214 -48 -266 l-21 -29 24
-50 c14 -27 43 -114 65 -194 23 -80 43 -153 46 -162 5 -16 -4 -18 -95 -18 -84
0 -104 3 -119 18 -10 10 -39 85 -66 167 -31 98 -56 159 -72 175 l-24 25 -202
0 -202 0 3 -172 3 -173 -136 0 -136 0 0 338 c0 187 -3 414 -7 506 l-6 167 424
-3 c376 -3 427 -5 455 -20z m1310 3 c23 -10 51 -32 62 -49 30 -41 45 -158 33
-246 -10 -72 -27 -106 -72 -146 l-29 -25 34 -25 c74 -54 102 -126 91 -233 -12
-125 -46 -185 -130 -230 -38 -21 -56 -22 -329 -25 -250 -3 -295 -1 -332 13
-58 22 -110 83 -123 147 -12 55 -14 369 -4 651 l6 187 376 0 c345 0 379 -2
417 -19z m993 3 c32 -23 61 -90 61 -146 l0 -48 -262 -2 -262 -3 -21 -32 c-20
-29 -22 -49 -29 -256 -7 -242 -3 -266 41 -286 15 -7 108 -11 260 -11 l236 0
-6 -92 c-8 -144 27 -130 -316 -126 l-297 3 -52 34 c-111 71 -128 145 -118 531
7 283 14 326 53 379 51 67 73 71 398 71 253 0 294 -2 314 -16z m731 -89 l0
-104 -62 -3 -63 -3 -8 -390 c-4 -214 -10 -396 -12 -403 -4 -9 -34 -12 -122
-10 l-118 3 4 403 3 402 -115 0 -116 0 -3 105 -3 105 308 0 307 0 0 -105z
m940 13 c0 -51 -4 -99 -9 -107 -8 -12 -53 -13 -272 -8 -144 3 -273 1 -286 -4
-17 -6 -23 -16 -23 -38 0 -53 11 -56 285 -61 l252 -5 41 -27 c22 -15 54 -49
69 -75 l28 -48 0 -195 c0 -209 -6 -246 -51 -300 -51 -60 -83 -65 -449 -65
-306 0 -332 1 -361 19 -17 10 -39 31 -47 46 -17 29 -50 141 -43 147 2 3 153 5
335 6 398 2 374 -6 379 135 3 76 1 91 -16 112 l-20 25 -244 5 c-271 7 -277 8
-341 79 -42 46 -53 82 -62 203 -5 74 -3 94 13 131 21 46 66 87 117 105 18 6
160 11 368 11 l337 1 0 -92z m387 -70 c10 -17 10 -61 0 -69 -5 -3 -2 -13 6
-21 18 -17 31 -58 20 -59 -4 0 -17 -2 -28 -4 -28 -6 -55 -7 -87 -6 -27 1 -28
3 -28 55 0 29 3 68 6 85 6 30 9 31 55 31 27 0 51 -5 56 -12z m69 -4 c52 -21
74 -42 74 -69 0 -30 -23 -38 -43 -14 -10 11 -30 19 -46 19 -26 0 -29 4 -33 35
-3 31 -1 45 7 45 2 0 20 -7 41 -16z m-102 -190 c4 -9 4 -25 1 -34 -5 -15 5
-19 72 -28 43 -5 82 -6 86 -2 19 17 47 -3 53 -37 6 -33 0 -130 -12 -192 -5
-23 -3 -36 7 -42 11 -7 11 -25 -5 -116 -10 -59 -23 -117 -29 -128 -11 -19 -12
-18 -15 10 -2 16 1 31 7 33 6 2 11 8 11 13 0 6 -4 7 -10 4 -6 -4 -10 25 -10
79 0 94 4 90 -63 71 -19 -5 -25 -10 -17 -15 7 -4 9 -16 6 -28 -8 -24 -52 -27
-59 -3 -3 13 -14 16 -46 14 -22 -1 -46 -5 -51 -8 -6 -3 -10 -5 -10 -3 -1 2 -4
31 -7 66 l-5 62 83 0 c46 -1 103 -5 127 -9 23 -5 44 -6 45 -2 2 3 2 43 -1 89
-4 73 -6 82 -23 82 -16 0 -18 -4 -11 -17 5 -10 7 -23 5 -30 -2 -6 1 -14 7 -18
8 -5 5 -12 -7 -22 -10 -8 -12 -11 -4 -7 10 5 11 1 6 -17 -4 -13 -9 -26 -12
-29 -7 -8 -151 -13 -179 -6 l-25 7 3 107 c3 103 4 107 25 106 17 0 20 3 14 14
-12 22 -1 52 19 52 10 0 21 -7 24 -16z m-8274 -144 c0 -5 10 -10 23 -10 12 0
40 -14 61 -30 22 -17 47 -30 57 -30 27 0 32 -17 6 -22 -12 -2 -61 -2 -110 0
l-88 4 7 37 c3 20 7 42 9 49 5 14 35 16 35 2z m8500 -155 c0 -8 -4 -15 -10
-15 -5 0 -10 7 -10 15 0 8 5 15 10 15 6 0 10 -7 10 -15z m-8500 -109 c0 -3 -4
-8 -10 -11 -5 -3 -10 -1 -10 4 0 6 5 11 10 11 6 0 10 -2 10 -4z m8294 -142
c11 -28 6 -39 -9 -20 -14 19 -15 19 -15 -7 0 -17 -5 -27 -15 -27 -23 0 -18
-14 9 -26 18 -8 28 -8 35 -1 8 8 11 -7 11 -50 0 -76 -26 -102 -32 -31 -2 21
-6 23 -42 19 -34 -3 -38 -1 -32 14 4 12 0 18 -14 22 -25 7 -16 23 12 23 18 0
20 4 15 35 -5 30 -3 35 13 35 23 0 35 16 18 23 -7 3 -1 6 13 6 16 1 29 -6 33
-15z m86 -18 c0 -51 -25 -176 -42 -209 -22 -43 -34 -45 -18 -3 5 15 10 72 10
127 0 99 0 99 25 99 15 0 25 -6 25 -14z m-203 -128 c-3 -8 -6 -5 -6 6 -1 11 2
17 5 13 3 -3 4 -12 1 -19z m-17 -48 c0 -5 -5 -10 -11 -10 -5 0 -7 5 -4 10 3 6
8 10 11 10 2 0 4 -4 4 -10z m-4481 -107 c93 -153 116 -180 158 -194 25 -8 149
-13 373 -16 l336 -5 28 28 c36 36 126 165 157 224 20 39 24 42 27 22 3 -19 8
-23 25 -19 46 11 157 19 157 11 0 -5 -39 -56 -85 -114 -47 -58 -104 -133 -126
-166 l-41 -62 -60 -6 c-71 -9 -672 -6 -800 3 -74 5 -93 10 -105 26 -8 11 -45
67 -83 125 -37 58 -87 132 -110 165 l-42 60 59 6 c32 3 62 5 67 4 5 -1 34 -42
65 -92z m-312 35 c48 -50 183 -235 183 -251 0 -6 -15 4 -33 23 -19 19 -32 38
-30 43 2 4 0 7 -5 7 -9 0 -172 203 -172 214 0 15 19 2 57 -36z m4783 -8 c17
-11 17 -11 -27 -15 -23 -2 -30 1 -26 11 6 16 31 18 53 4z m136 -35 c-16 -33
-30 -49 -21 -22 20 55 26 69 32 64 3 -4 -2 -22 -11 -42z m-161 5 c-3 -5 3 -10
14 -10 10 0 27 -3 37 -7 13 -5 15 -3 9 8 -5 8 4 3 18 -10 26 -23 38 -49 18
-36 -6 3 -15 -4 -21 -15 -7 -13 -7 -20 0 -20 5 0 10 -13 10 -30 0 -21 -5 -30
-16 -30 -10 0 -14 6 -11 14 4 10 1 13 -7 10 -9 -3 -17 9 -24 39 -6 24 -20 52
-31 61 -20 18 -20 36 0 36 6 0 7 -4 4 -10z m-6630 -95 c36 -133 111 -346 118
-339 4 4 7 2 7 -4 0 -7 11 -12 23 -12 33 0 46 -18 120 -165 63 -126 216 -375
260 -424 12 -13 15 -20 7 -16 -13 8 -13 7 0 -11 7 -10 19 -24 25 -29 5 -6 46
-49 90 -95 44 -46 82 -84 85 -85 3 0 25 -18 48 -39 89 -83 292 -238 414 -318
120 -79 141 -99 118 -113 -22 -14 -270 153 -408 274 -425 371 -561 524 -717
801 -32 57 -68 113 -81 124 -15 14 -36 65 -63 151 -58 187 -88 294 -96 343 -6
39 -5 43 11 40 12 -2 23 -26 39 -83z m5680 73 c9 -9 -30 -144 -80 -272 -38
-97 -60 -148 -133 -306 -17 -36 -106 -188 -150 -252 -13 -21 -28 -35 -33 -32
-5 3 -7 -1 -4 -8 3 -7 -4 -24 -15 -38 -17 -21 -21 -23 -30 -10 -6 9 -10 10
-10 3 0 -6 4 -14 10 -18 5 -3 6 -13 3 -21 -5 -12 -7 -13 -14 -3 -6 10 -14 8
-33 -11 -15 -13 -26 -29 -26 -35 0 -7 -9 -20 -20 -30 -31 -28 -49 -5 -25 32
l18 28 -21 -19 c-22 -19 -30 -66 -12 -66 6 0 10 -7 10 -15 0 -9 -6 -12 -15 -9
-8 4 -15 1 -15 -6 0 -16 -26 -40 -35 -32 -4 4 -6 0 -3 -8 6 -20 -17 -42 -46
-44 -14 0 -22 -6 -19 -13 3 -7 0 -13 -5 -13 -20 0 -21 17 -4 36 10 10 33 40
51 67 19 26 38 47 43 47 4 0 8 5 8 11 0 7 15 30 33 53 36 44 95 128 113 161 6
11 37 64 68 118 31 54 56 103 56 108 0 19 -18 8 -32 -18 -28 -55 -53 -93 -61
-93 -5 0 -5 5 -2 10 3 6 4 10 2 10 -3 0 -17 -20 -31 -44 -15 -25 -31 -48 -37
-51 -13 -9 30 77 66 130 104 152 265 537 265 635 0 10 6 21 13 24 16 7 144 2
152 -6z m90 -34 c-29 -155 -169 -512 -262 -667 -2 -4 -13 -2 -23 3 -16 8 -18
8 -14 -5 4 -10 0 -15 -10 -15 -9 0 -16 -6 -16 -12 0 -8 -5 -6 -11 4 -7 13 -4
27 14 55 74 120 247 576 247 652 0 18 6 21 41 21 l41 0 -7 -36z m-4050 -68
c34 -34 80 -87 104 -119 24 -31 45 -57 48 -57 2 0 1 5 -3 12 -4 7 -3 8 4 4 7
-4 12 -14 12 -22 0 -9 5 -12 12 -8 6 4 8 3 4 -4 -8 -13 93 -141 158 -200 26
-24 46 -46 43 -48 -5 -6 -126 110 -171 164 -20 24 -36 40 -36 36 0 -5 -7 3
-16 16 -9 14 -30 39 -45 55 -124 130 -189 202 -204 228 l-17 29 23 -13 c13 -7
51 -40 84 -73z m16 48 c21 -35 24 -50 7 -36 -22 18 -52 75 -37 70 7 -2 21 -18
30 -34z m1783 -33 c-16 -23 -37 -43 -46 -47 -10 -3 -18 -9 -18 -14 0 -9 -148
-190 -155 -190 -2 0 -12 -3 -22 -6 -11 -4 -1 11 23 37 22 24 68 76 102 116 33
39 62 69 65 66 3 -2 20 16 39 40 41 55 51 53 12 -2z m345 19 c-13 -16 -25 -28
-27 -25 -5 5 37 55 45 55 2 0 -6 -13 -18 -30z m2736 -17 c4 -21 3 -33 -4 -33
-6 0 -11 11 -11 24 0 13 -3 33 -6 43 -5 12 -4 15 3 8 6 -5 14 -25 18 -42z
m-40 -19 c-9 -9 -19 -13 -23 -10 -3 4 0 11 8 16 24 15 33 11 15 -6z m-7780
-382 c-8 -9 -106 280 -105 313 0 5 25 -62 54 -150 30 -88 53 -161 51 -163z
m7923 306 c14 -18 -21 -146 -64 -231 -47 -93 -60 -112 -68 -95 -3 7 -4 4 -1
-8 6 -24 -16 -73 -45 -99 -18 -17 -20 -17 -14 -2 3 10 1 17 -5 17 -6 0 -11 -8
-12 -17 0 -10 -3 -13 -5 -6 -3 6 6 44 20 85 14 40 38 120 54 178 16 58 37 122
46 144 13 32 18 36 31 26 12 -10 16 -9 21 4 7 19 28 21 42 4z m-137 -52 c-20
-35 -43 -125 -35 -138 3 -4 0 -8 -5 -8 -6 0 -11 12 -12 28 -1 22 -3 18 -14
-18 -45 -155 -91 -271 -161 -413 -24 -49 -42 -92 -39 -97 2 -4 -2 -16 -11 -26
-14 -18 -15 -18 -4 4 19 40 3 23 -26 -25 -15 -27 -32 -51 -37 -54 -5 -4 -7
-14 -4 -22 3 -9 -1 -21 -9 -27 -8 -7 -14 -19 -14 -26 0 -13 -15 -44 -33 -68
-4 -6 -37 -60 -72 -121 -74 -125 -153 -235 -220 -309 -6 -6 -50 -57 -99 -113
-79 -92 -106 -116 -106 -97 0 13 24 50 44 69 12 11 29 32 39 48 10 15 24 27
31 27 8 0 13 6 12 14 0 7 32 56 73 107 41 52 114 155 163 229 48 74 93 140 98
147 6 7 10 15 10 17 0 3 19 36 41 73 55 89 184 348 210 421 11 31 26 71 34 87
7 17 20 57 30 90 9 33 21 68 27 79 7 13 6 21 -2 26 -14 9 4 72 30 104 11 15
12 17 1 11 -10 -5 -12 -4 -7 3 9 15 36 16 36 1 0 -6 7 -3 16 5 25 26 35 8 15
-28z m148 -50 c-11 -38 -23 -66 -25 -63 -3 3 2 29 12 59 9 29 19 59 21 67 2 8
6 12 8 9 3 -3 -4 -35 -16 -72z m-3096 -46 c-63 -61 -90 -67 -33 -8 22 23 40
46 40 50 0 4 10 8 23 8 19 0 15 -7 -30 -50z m-710 33 c-83 -2 -223 -2 -310 0
-87 1 -18 3 152 3 171 0 242 -2 158 -3z m-2113 -120 c0 -61 -3 -83 -10 -73
-13 20 -13 160 0 160 6 0 10 -36 10 -87z m5887 8 c-3 -50 -21 -86 -39 -75 -5
3 -5 11 2 18 5 7 11 26 13 42 4 29 16 64 23 64 2 0 2 -22 1 -49z m-3107 -2 c0
-11 -3 -11 -24 -3 -23 9 -20 23 4 17 11 -3 20 -9 20 -14z m-57 -8 c-3 -10 0
-22 6 -25 6 -4 11 -2 11 5 0 7 3 10 6 6 3 -3 3 -11 -1 -17 -5 -8 -12 -7 -24 4
-16 15 -21 13 -59 -26 -43 -43 -60 -75 -20 -38 12 11 27 20 34 20 6 0 17 7 24
15 12 14 15 14 30 0 14 -13 19 -13 36 0 30 23 36 18 18 -17 -15 -30 -15 -34 1
-65 10 -18 15 -36 12 -39 -3 -4 -2 -14 3 -24 7 -14 1 -21 -30 -39 -44 -24 -62
-20 -137 33 -31 21 -43 36 -43 55 0 19 -3 22 -12 13 -14 -14 -28 -16 -28 -3 0
7 168 161 176 161 1 0 0 -8 -3 -19z m-4505 -136 c34 -89 87 -219 104 -252 6
-11 8 -27 6 -35 -3 -7 -1 -21 4 -30 5 -10 6 -18 3 -18 -14 0 -122 276 -160
410 -15 52 13 3 43 -75z m1018 -8 c18 -10 18 -28 1 -21 -8 3 -21 21 -30 40
-22 44 -21 59 0 19 9 -16 22 -34 29 -38z m4227 57 c8 -8 -3 -34 -14 -34 -5 0
-9 9 -9 20 0 19 11 26 23 14z m-13 -59 c0 -8 -2 -15 -4 -15 -2 0 -32 -7 -65
-16 -46 -11 -65 -12 -82 -4 -29 16 -19 22 59 36 90 16 92 16 92 -1z m2354 -62
c-29 -73 -177 -374 -200 -407 -30 -43 -11 0 64 147 42 83 95 194 117 244 45
106 60 119 19 16z m-5410 53 c16 4 22 0 23 -14 1 -18 -1 -19 -28 -9 -16 6 -29
18 -28 27 0 10 2 11 6 3 3 -8 14 -11 27 -7z m897 4 c5 0 9 -6 9 -14 0 -17 -69
-80 -78 -71 -3 3 7 17 23 31 22 19 26 27 17 36 -17 17 -15 31 4 24 9 -3 20 -6
25 -6z m2256 -19 c2 -28 -47 -37 -84 -17 l-28 15 34 -6 c29 -5 33 -4 28 10 -5
13 0 17 21 17 20 0 28 -5 29 -19z m-2954 -8 c-13 -2 -35 -2 -50 0 -16 2 -5 4
22 4 28 0 40 -2 28 -4z m100 -10 c-13 -2 -35 -2 -50 0 -16 2 -5 4 22 4 28 0
40 -2 28 -4z m110 -10 c-13 -2 -33 -2 -45 0 -13 2 -3 4 22 4 25 0 35 -2 23 -4z
m155 -10 c-21 -2 -57 -2 -80 0 -24 2 -7 4 37 4 44 0 63 -2 43 -4z m2843 -116
c-14 -32 -26 -47 -39 -47 -10 0 -24 -6 -31 -12 -11 -11 -13 -10 -8 4 4 10 1
23 -6 30 -10 9 -6 19 21 49 20 22 40 35 48 32 8 -3 11 -10 7 -16 -3 -6 -1 -7
6 -3 7 5 10 22 7 44 l-5 37 10 -35 c8 -30 6 -44 -10 -83z m-5659 2 c25 -88 21
-107 -6 -34 -37 94 -40 108 -25 103 7 -2 21 -33 31 -69z m7505 -11 c-3 -8 -6
-5 -6 6 -1 11 2 17 5 13 3 -3 4 -12 1 -19z m-5878 -22 c-2 -2 -15 -9 -29 -16
-23 -12 -24 -12 -11 3 7 10 20 17 29 17 8 0 13 -2 11 -4z m3455 -16 c-7 -7
-19 -7 -35 -1 -23 9 -22 10 11 10 23 1 31 -2 24 -9z m-2201 -27 c-7 -2 -21 -2
-30 0 -10 3 -4 5 12 5 17 0 24 -2 18 -5z m1917 -2 c0 -8 -140 -21 -233 -21
-80 0 -49 9 54 16 52 3 96 8 98 10 9 8 81 4 81 -5z m415 -1 c3 -5 1 -10 -4
-10 -6 0 -11 5 -11 10 0 6 2 10 4 10 3 0 8 -4 11 -10z m-2262 -7 c-7 -2 -19
-2 -25 0 -7 3 -2 5 12 5 14 0 19 -2 13 -5z m3181 -34 c-8 -13 -16 -11 -49 16
l-30 25 42 -16 c23 -9 40 -21 37 -25z m-4357 -79 c75 -91 225 -256 278 -305
79 -74 138 -125 219 -190 144 -114 151 -121 134 -127 -16 -7 -126 57 -235 136
-159 115 -378 331 -481 475 -55 76 -56 78 -25 95 16 8 31 11 34 8 3 -4 37 -45
76 -92z m5652 9 c-11 -28 -26 -58 -34 -65 -8 -8 -12 -21 -9 -29 4 -9 0 -15
-10 -15 -9 0 -16 -5 -16 -12 0 -6 -3 -9 -6 -5 -9 9 38 97 48 91 5 -3 8 0 7 7
-3 13 27 79 35 79 2 0 -5 -23 -15 -51z m-2765 -136 c4 -9 3 -19 -1 -23 -4 -4
-75 -17 -157 -29 -125 -19 -170 -22 -273 -16 -123 7 -172 25 -68 25 29 0 78 5
107 11 90 20 280 47 334 48 40 1 53 -3 58 -16z m-1354 -74 c24 -5 14 -6 -29
-2 -44 4 -62 3 -57 -5 3 -5 49 -13 101 -17 53 -4 94 -10 91 -12 -3 -3 -55 -2
-115 2 -79 5 -109 10 -104 19 4 6 8 14 9 19 1 4 2 9 3 12 1 5 39 -1 101 -16z
m-303 5 c-3 -3 -12 -4 -19 -1 -8 3 -5 6 6 6 11 1 17 -2 13 -5z m40 -10 c-3 -3
-12 -4 -19 -1 -8 3 -5 6 6 6 11 1 17 -2 13 -5z m356 -1 c-7 -2 -21 -2 -30 0
-10 3 -4 5 12 5 17 0 24 -2 18 -5z m2841 -36 c19 -8 43 -13 54 -10 26 6 53
-33 47 -67 -4 -22 3 -29 45 -53 44 -25 70 -52 70 -72 0 -14 -69 10 -153 52
-65 33 -86 48 -78 56 19 19 12 28 -16 23 -16 -2 -32 -5 -36 -5 -5 -1 -5 -6 -1
-12 4 -8 -4 -9 -27 -4 -44 9 -43 8 -29 47 13 35 83 93 88 73 2 -6 18 -19 36
-28z m-1575 6 c0 -16 -4 -50 -9 -78 -7 -48 -7 -48 -9 28 0 45 3 77 9 77 6 0
10 -12 9 -27z m1721 -55 c15 -21 17 -28 6 -19 -16 13 -41 51 -33 51 2 0 14
-15 27 -32z m-4608 -139 c32 -33 54 -59 49 -57 -11 4 -121 107 -121 114 0 13
19 -2 72 -57z m117 -104 c24 -19 41 -35 37 -35 -8 0 -96 61 -96 67 0 10 20 -1
59 -32z m2169 -7 c6 -16 10 -28 7 -28 -5 0 -35 56 -35 67 0 12 15 -10 28 -39z
m-2058 -84 c0 -3 -13 4 -30 16 -16 12 -30 24 -30 26 0 3 14 -4 30 -16 17 -12
30 -24 30 -26z m65 -39 c39 -32 29 -32 -15 0 -19 14 -30 25 -24 25 5 -1 23
-12 39 -25z m-1355 -66 c6 -10 9 -19 6 -19 -9 0 -36 31 -36 41 0 14 18 1 30
-22z m4095 -9 c-3 -5 -12 -10 -18 -10 -7 0 -6 4 3 10 19 12 23 12 15 0z
m-2145 -7 c0 -5 -7 -17 -15 -27 -14 -19 -15 -19 -15 7 0 17 5 27 15 27 8 0 15
-3 15 -7z m2170 -55 c11 -18 20 -40 20 -48 0 -14 -49 57 -50 73 0 15 11 6 30
-25z m299 -51 c-24 -18 -84 -54 -132 -80 -80 -42 -88 -44 -81 -24 3 12 7 23 8
23 7 9 225 113 235 113 8 1 -6 -14 -30 -32z m-2605 -70 c60 -28 104 -53 99
-54 -5 -2 -65 24 -134 57 -68 34 -113 58 -99 54 14 -4 74 -29 134 -57z m63 57
c-3 -3 -12 -4 -19 -1 -8 3 -5 6 6 6 11 1 17 -2 13 -5z m-1415 -357 c-1 -5 2
-6 7 -3 5 3 14 -1 20 -8 24 -29 -9 -27 -51 2 -71 49 -209 185 -203 199 3 8 0
11 -6 7 -12 -7 -59 33 -59 50 1 6 10 0 21 -13 11 -13 22 -22 24 -19 3 2 -10
21 -28 42 -18 20 -41 51 -51 69 -10 18 60 -47 155 -143 96 -96 173 -179 171
-183z m2668 281 c0 -28 -2 -49 -4 -47 -8 9 -13 99 -5 99 5 0 9 -23 9 -52z
m-591 21 c87 -14 97 -17 84 -30 -12 -12 -147 7 -183 27 l-25 13 29 1 c16 0 59
-5 95 -11z m875 -14 c-4 -8 -7 -15 -9 -15 -2 0 -5 7 -9 15 -3 9 0 15 9 15 9 0
12 -6 9 -15z m711 -84 c3 -5 1 -12 -5 -16 -5 -3 -10 1 -10 9 0 18 6 21 15 7z
m1365 -302 c-25 -22 -67 -54 -95 -71 -27 -18 -52 -35 -55 -38 -7 -10 -145
-101 -224 -149 -110 -68 -87 -40 36 42 104 69 224 154 273 192 10 8 23 15 28
15 5 0 22 11 39 25 48 41 47 28 -2 -16z m-472 -292 c-27 -26 -74 -54 -90 -54
-9 0 -15 4 -12 8 2 5 10 6 17 4 7 -3 28 9 47 25 34 29 64 42 38 17z m362 -21
c0 -5 -166 -111 -255 -163 -87 -51 -195 -105 -195 -98 0 2 27 18 59 35 53 26
247 144 341 206 34 22 50 29 50 20z m-505 -61 c-16 -14 -65 -43 -107 -65 -78
-41 -113 -69 -62 -50 15 6 28 9 30 7 2 -2 -67 -36 -154 -76 -174 -80 -205
-100 -195 -127 4 -11 0 -22 -12 -30 -27 -20 -35 -17 -35 11 0 33 -11 32 -145
-9 -118 -36 -224 -61 -231 -53 -2 2 32 14 76 27 44 12 77 27 74 32 -3 4 -2 7
3 6 15 -4 83 13 83 21 0 4 19 13 41 20 26 8 43 20 46 32 3 10 10 19 15 19 6 0
8 11 4 23 -4 19 0 26 20 35 34 16 53 15 60 -3 10 -26 84 -18 185 20 51 19 96
41 101 49 4 8 35 27 68 43 33 15 60 31 60 35 0 5 6 8 13 9 6 0 28 11 47 24 46
31 53 31 15 0z m-246 -350 c-8 -7 -283 -115 -294 -115 -21 1 253 117 279 119
11 1 17 -1 15 -4z"/>
<path d="M6278 8733 c6 -2 18 -2 25 0 6 3 1 5 -13 5 -14 0 -19 -2 -12 -5z"/>
<path d="M8890 6295 c0 -5 5 -17 10 -25 5 -8 10 -10 10 -5 0 6 -5 17 -10 25
-5 8 -10 11 -10 5z"/>
<path d="M5010 7979 c0 -5 5 -7 10 -4 6 3 10 8 10 11 0 2 -4 4 -10 4 -5 0 -10
-5 -10 -11z"/>
<path d="M6490 7696 c0 -2 9 -6 20 -9 11 -3 18 -1 14 4 -5 9 -34 13 -34 5z"/>
<path d="M6550 7676 c0 -2 7 -7 16 -10 8 -3 12 -2 9 4 -6 10 -25 14 -25 6z"/>
<path d="M6505 7450 c3 -5 10 -10 16 -10 5 0 9 5 9 10 0 6 -7 10 -16 10 -8 0
-12 -4 -9 -10z"/>
<path d="M6570 7456 c0 -2 7 -7 16 -10 8 -3 12 -2 9 4 -6 10 -25 14 -25 6z"/>
<path d="M6610 7436 c0 -3 9 -10 20 -16 11 -6 20 -8 20 -6 0 3 -9 10 -20 16
-11 6 -20 8 -20 6z"/>
<path d="M6665 7403 c6 -6 53 -39 105 -74 52 -34 124 -85 160 -112 85 -66 103
-76 60 -37 -63 57 -369 267 -325 223z"/>
<path d="M7190 7320 c-13 -8 -12 -10 3 -10 9 0 17 5 17 10 0 12 -1 12 -20 0z"/>
<path d="M7421 6886 c-12 -15 -5 -28 40 -75 27 -29 124 -163 184 -256 65 -100
93 -135 109 -135 6 0 1 8 -10 18 -12 9 -45 55 -74 102 -29 47 -91 141 -137
208 -47 69 -82 130 -79 138 7 18 -18 18 -33 0z"/>
<path d="M7695 6426 c10 -14 19 -26 22 -26 7 0 -17 39 -28 46 -6 3 -3 -5 6
-20z"/>
<path d="M7780 6435 c-7 -9 -8 -15 -2 -15 5 0 12 7 16 15 3 8 4 15 2 15 -2 0
-9 -7 -16 -15z"/>
<path d="M4590 6130 c8 -5 24 -10 34 -10 26 0 18 6 -19 14 -22 5 -26 4 -15 -4z"/>
<path d="M6533 5829 c1 -19 17 -27 17 -8 0 5 5 7 10 4 6 -3 10 0 10 7 0 8 -9
14 -19 15 -14 1 -19 -4 -18 -18z"/>
<path d="M3482 5388 l3 -103 70 -3 c38 -2 79 -1 92 2 45 12 57 138 16 176 -13
13 -43 20 -101 25 l-83 6 3 -103z"/>
<path d="M2940 5460 c-19 -19 -20 -33 -19 -262 0 -161 4 -255 12 -278 l12 -35
133 -3 132 -3 0 285 c0 156 -3 291 -6 300 -5 13 -26 16 -125 16 -106 0 -121
-2 -139 -20z"/>
<path d="M3480 4985 l0 -105 98 0 c91 0 100 2 121 24 29 30 32 103 7 141 -23
36 -54 45 -147 45 l-79 0 0 -105z"/>
<path d="M4320 5347 l0 -137 199 0 c110 0 211 4 225 10 14 5 32 21 42 35 21
33 22 111 1 152 -29 55 -54 61 -271 69 l-196 7 0 -136z"/>
<path d="M5680 5385 l0 -95 180 0 c167 0 181 1 200 20 13 13 20 33 20 61 0 94
-34 109 -245 109 l-155 0 0 -95z"/>
<path d="M5680 5006 c0 -127 -2 -126 190 -126 174 0 213 9 230 50 24 57 -6
141 -56 160 -14 6 -102 10 -195 10 l-169 0 0 -94z"/>
<path d="M9210 5300 c0 -5 5 -10 10 -10 6 0 10 5 10 10 0 6 -4 10 -10 10 -5 0
-10 -4 -10 -10z"/>
<path d="M9421 4834 c0 -11 3 -14 6 -6 3 7 2 16 -1 19 -3 4 -6 -2 -5 -13z"/>
<path d="M2618 3935 c-6 -6 79 -168 136 -260 36 -59 106 -152 106 -141 0 7
-180 335 -212 386 -13 20 -21 24 -30 15z"/>
<path d="M2856 3577 c3 -10 9 -15 12 -12 3 3 0 11 -7 18 -10 9 -11 8 -5 -6z"/>
<path d="M7637 3525 c-4 -8 -3 -16 1 -19 4 -3 9 4 9 15 2 23 -3 25 -10 4z"/>
<path d="M7593 3435 c-3 -9 -3 -18 -1 -21 3 -3 8 4 11 16 6 23 -1 27 -10 5z"/>
<path d="M7510 3361 c0 -6 5 -13 10 -16 6 -3 10 1 10 9 0 9 -4 16 -10 16 -5 0
-10 -4 -10 -9z"/>
<path d="M7480 3310 c0 -5 5 -10 10 -10 6 0 10 5 10 10 0 6 -4 10 -10 10 -5 0
-10 -4 -10 -10z"/>
<path d="M7905 3750 c-3 -5 -1 -10 4 -10 6 0 11 5 11 10 0 6 -2 10 -4 10 -3 0
-8 -4 -11 -10z"/>
<path d="M8956 4175 c-3 -9 -6 -22 -5 -28 0 -7 5 -1 10 12 5 13 8 26 5 28 -2
2 -6 -3 -10 -12z"/>
<path d="M2390 2451 c0 -6 4 -13 10 -16 6 -3 7 1 4 9 -7 18 -14 21 -14 7z"/>
</g>
</svg>
