<svg xmlns="http://www.w3.org/2000/svg" width="512" height="512" viewBox="0 0 512 512" version="1.1">
	<path d="M 227.665 3.458 C 179.136 9.638, 138.062 26.918, 98.155 57.945 C 48.623 96.455, 15.865 153.528, 5.268 219.779 C 2.819 235.087, 2.856 273.142, 5.336 288.964 C 9.424 315.058, 17.293 339.469, 30.005 365.500 C 72.344 452.194, 159.666 507, 255.459 507 C 304.112 507, 353.281 492.169, 394.158 465.163 C 422.504 446.436, 448.923 420.060, 466.939 392.500 C 475.128 379.972, 488.126 354.109, 493.378 339.891 C 514.933 281.534, 514.062 221.271, 490.814 162.500 C 477.473 128.776, 458.203 100.080, 431.371 73.981 C 391.977 35.665, 345.356 12.132, 293.500 4.389 C 279.239 2.260, 241.292 1.723, 227.665 3.458 M 236.500 24.056 C 206.930 26.952, 172.065 37.171, 149.166 49.653 C 128.013 61.184, 105.533 78.326, 89.551 95.113 C 61.054 125.045, 36.979 170.624, 29.109 209.542 C 25.885 225.483, 25 235.240, 25 254.845 C 25 275.326, 26.432 287.630, 31.056 306.891 C 35.617 325.888, 37.236 328.756, 43 328.054 C 47.226 327.540, 95.607 308.179, 97.069 306.417 C 98.055 305.229, 97.777 303.225, 95.655 296.219 C 91.234 281.626, 89.820 273.149, 89.269 257.954 C 88.402 234.043, 92.138 212.125, 101.243 187.716 C 103.455 181.784, 105.093 176.792, 104.882 176.622 C 104.672 176.452, 100 173.914, 94.500 170.983 C 85.215 166.034, 56.861 150.149, 56.213 149.532 C 55.267 148.633, 58.629 144, 60.227 144 C 61.275 144, 71.987 149.438, 84.030 156.084 C 96.074 162.730, 106.731 168.359, 107.714 168.592 C 109.076 168.915, 111.245 166.306, 116.845 157.606 C 133.078 132.392, 152.917 114.873, 181.743 100.299 C 202.717 89.695, 222.529 83.976, 243.750 82.400 L 253 81.713 253 52.740 L 253 23.767 255.250 24.370 C 256.488 24.701, 257.837 24.979, 258.250 24.986 C 258.663 24.994, 259 37.763, 259 53.362 L 259 81.725 267.750 82.433 C 320.253 86.681, 371.440 118.235, 397.098 162.168 C 399.293 165.926, 401.739 169, 402.535 169 C 403.330 169, 410.623 165.345, 418.741 160.877 C 426.858 156.410, 437.648 150.527, 442.718 147.805 L 451.936 142.856 453.328 146.178 C 454.094 148.005, 454.562 149.789, 454.368 150.142 C 454.174 150.495, 444.899 155.629, 433.758 161.551 C 422.616 167.472, 411.654 173.483, 409.399 174.908 L 405.298 177.500 409.272 188 C 418.404 212.128, 422.510 235.950, 421.681 260 C 421.097 276.942, 419.921 283.572, 414.382 301.152 C 412.363 307.561, 410.997 313.550, 411.347 314.461 C 411.697 315.373, 416.374 318.165, 421.741 320.666 C 427.109 323.166, 438.475 328.540, 447 332.607 C 455.525 336.673, 463.533 340.001, 464.795 340 C 468.856 340, 471.441 335.978, 475.725 322.994 C 486.142 291.425, 489.219 262.455, 485.516 230.799 C 482.242 202.816, 475.367 179.770, 462.789 154.614 C 438.533 106.106, 401.462 68.893, 354.500 45.910 C 319.127 28.599, 274.500 20.334, 236.500 24.056 M 252.250 98.662 C 250.898 99.208, 250.739 110.170, 251.881 124 C 252.473 131.168, 252.611 131.500, 255 131.500 C 257.369 131.500, 257.533 131.133, 258.126 124.500 C 258.470 120.650, 258.807 113.578, 258.876 108.785 C 258.985 101.120, 258.767 99.946, 257.066 99.035 C 254.997 97.928, 254.219 97.868, 252.250 98.662 M 312.725 115.250 C 303.219 135.805, 301 140.829, 301 141.797 C 301 143.004, 304.116 145, 306 145 C 306.622 145, 310.320 138.399, 314.216 130.331 L 321.301 115.662 319.040 113.831 C 315.827 111.230, 314.440 111.541, 312.725 115.250 M 189.493 114.406 C 187.548 115.853, 187.675 116.238, 194.807 130.444 C 198.826 138.450, 202.677 145, 203.366 145 C 204.054 145, 205.460 144.384, 206.490 143.631 C 208.277 142.324, 208.065 141.603, 201.866 127.881 C 195.035 112.760, 193.684 111.289, 189.493 114.406 M 346.250 152.976 C 340.613 158.451, 336 163.326, 336 163.810 C 336 164.294, 336.863 165.471, 337.917 166.425 C 340.504 168.766, 341.598 168.055, 352.754 156.795 C 361.715 147.750, 361.958 147.385, 360.447 145.228 C 359.589 144.002, 358.350 143.005, 357.693 143.011 C 357.037 143.017, 351.887 147.502, 346.250 152.976 M 150.466 146.038 C 148.648 148.046, 148.736 148.191, 156.561 156.111 C 160.927 160.530, 165.762 165.061, 167.304 166.179 C 169.970 168.113, 170.201 168.128, 172.022 166.480 C 173.583 165.067, 173.730 164.357, 172.820 162.624 C 171.177 159.497, 155.234 144, 153.659 144 C 152.917 144, 151.480 144.917, 150.466 146.038 M 120.161 181.547 C 119.522 182.948, 119 184.520, 119 185.041 C 119 186.452, 149.003 201.213, 150.614 200.595 C 153.365 199.539, 152.041 196.124, 147.750 193.209 C 139.639 187.699, 124.405 179, 122.867 179 C 122.017 179, 120.799 180.146, 120.161 181.547 M 380.175 182.997 C 366.801 191.042, 359 196.407, 359 197.558 C 359 198.216, 359.591 199.245, 360.313 199.845 C 361.301 200.665, 365.374 199.180, 376.813 193.827 C 385.166 189.918, 392 186.129, 392 185.407 C 392 182.803, 389.645 179.002, 388.089 179.096 C 387.215 179.148, 383.654 180.904, 380.175 182.997 M 247.500 230.662 C 238.192 235.569, 234.061 244.912, 237.138 254.101 C 242.192 269.194, 259.024 273.538, 269.648 262.491 C 277.093 254.749, 277.528 244.088, 270.716 236.330 C 264.817 229.611, 254.343 227.054, 247.500 230.662 M 390 237.573 C 372.465 239.573, 371.823 239.744, 372.188 242.307 C 372.525 244.679, 372.873 244.737, 396.750 246.420 L 406 247.072 406 243.118 C 406 237.985, 405.175 235.969, 403.143 236.131 C 402.239 236.203, 396.325 236.852, 390 237.573 M 106 242.129 L 106 247.258 111.750 246.655 C 114.912 246.323, 121.550 245.788, 126.500 245.467 C 138.676 244.676, 140 244.336, 140 242 C 140 240.780, 139.149 239.849, 137.750 239.539 C 133.822 238.668, 116.274 237, 111.039 237 L 106 237 106 242.129 M 148 277.345 C 124.128 285.939, 109.900 293.691, 111.300 297.340 C 111.651 298.253, 112.662 299, 113.548 299 C 116.262 299, 141.835 289.107, 153.949 283.371 C 165.823 277.749, 169 275.632, 169 273.345 C 169 270.847, 162.733 272.041, 148 277.345 M 209.693 290.700 C 206.687 291.479, 206 295.418, 206 311.877 C 206 333.250, 204.669 332, 227.428 332 C 250.541 332, 248.894 333.575, 249.127 311.249 C 249.367 288.373, 250.913 289.965, 228.595 290.116 C 219.193 290.180, 210.687 290.443, 209.693 290.700 M 263.250 291.031 C 261.031 291.923, 261 292.188, 261 310.345 C 261 326.250, 261.225 328.942, 262.654 330.128 C 263.919 331.178, 268.492 331.500, 282.118 331.500 C 297.647 331.500, 300.150 331.279, 301.653 329.776 C 303.150 328.279, 303.386 325.728, 303.439 310.446 C 303.496 294.134, 303.357 292.737, 301.559 291.421 C 300.052 290.318, 295.798 290.014, 282.559 290.063 C 273.176 290.098, 264.488 290.534, 263.250 291.031 M 214.618 300.553 C 213.736 302.852, 213.851 321.801, 214.750 322.287 C 215.162 322.510, 221.252 322.482, 228.282 322.224 L 241.063 321.756 240.782 310.628 L 240.500 299.500 227.868 299.221 C 217.010 298.981, 215.149 299.168, 214.618 300.553 M 269 310.500 L 269 322 282 322 L 295 322 295 310.500 L 295 299 282 299 L 269 299 269 310.500 M 242.571 348.571 C 241.707 349.436, 241 351.654, 241 353.500 C 241 359.570, 247.216 362.386, 250.443 357.777 C 252.637 354.645, 252.383 352.292, 249.545 349.455 C 246.701 346.610, 244.776 346.366, 242.571 348.571 M 303.896 349.104 C 302.301 350.699, 301.939 351.947, 302.402 354.259 C 303.569 360.095, 306.474 361.526, 310 358 C 312.499 355.501, 312.584 350.839, 310.171 348.655 C 307.759 346.472, 306.433 346.567, 303.896 349.104 M 318.413 349.493 C 316.734 352.056, 317.087 356.195, 319.203 358.744 C 321.955 362.060, 328 358.162, 328 353.071 C 328 347.184, 321.512 344.762, 318.413 349.493 M 199.750 349.080 C 198.252 349.953, 198 351.677, 198 361.074 C 198 371.936, 198.027 372.060, 200.565 373.025 C 202.269 373.673, 203.781 373.653, 205.065 372.965 C 206.691 372.095, 207.032 370.698, 207.200 364.215 C 207.506 352.388, 207.300 350.692, 205.389 349.295 C 203.285 347.757, 202.100 347.712, 199.750 349.080 M 225.200 349.200 C 223.002 351.398, 223.748 356.789, 226.500 358.592 C 228.816 360.109, 229.184 360.109, 231.500 358.592 C 233.325 357.396, 234 356.069, 234 353.677 C 234 349.725, 232.481 348, 229 348 C 227.570 348, 225.860 348.540, 225.200 349.200 M 279.571 349.571 C 278.357 350.786, 278.003 353.341, 278.015 360.821 C 278.024 366.145, 278.408 371.096, 278.870 371.824 C 279.375 372.621, 281.063 373.019, 283.105 372.824 L 286.500 372.500 286.785 361.645 C 287.081 350.352, 286.420 348, 282.949 348 C 281.956 348, 280.436 348.707, 279.571 349.571 M 226.039 363.189 C 223.782 365.612, 223.318 370.918, 225.200 372.800 C 225.860 373.460, 227.570 374, 229 374 C 230.430 374, 232.140 373.460, 232.800 372.800 C 234.826 370.774, 234.222 365.558, 231.686 363.174 C 228.821 360.483, 228.559 360.484, 226.039 363.189 M 319.073 363.635 C 316.317 367.138, 316.383 371.455, 319.223 373.443 C 320.445 374.299, 322.020 375, 322.723 375 C 324.824 375, 328 371.169, 328 368.635 C 328 365.888, 324.479 361, 322.500 361 C 321.755 361, 320.212 362.186, 319.073 363.635 M 242.245 363.250 C 237.965 368.600, 241.905 376.434, 247.916 374.527 C 250.811 373.608, 252.047 369.018, 250.434 365.180 C 249.364 362.636, 248.511 362, 246.171 362 C 244.562 362, 242.795 362.563, 242.245 363.250 M 303.922 363.593 C 302.149 365.731, 302.232 371.902, 304.050 373.052 C 307.976 375.536, 312.250 373.144, 312.250 368.464 C 312.250 363.388, 306.758 360.176, 303.922 363.593 M 450.500 376.330 C 443.381 387.163, 426.422 407.350, 416.187 417.173 C 382.500 449.507, 340.582 470.351, 293.038 478.409 C 259.025 484.173, 225.757 482.513, 192.500 473.390 C 170.850 467.451, 143.501 455.682, 127.284 445.325 C 103.862 430.367, 81.911 408.597, 66 384.546 C 57.817 372.176, 57.648 371.972, 61.199 378.761 C 69.096 393.858, 86.782 415.322, 102.549 428.944 C 120.121 444.124, 136.541 455.048, 155.216 463.981 C 201.116 485.938, 256.325 492.316, 305.790 481.378 C 359.051 469.601, 407.272 439.128, 438.520 397.500 C 446.403 386.999, 455.833 371.428, 454.843 370.548 C 454.654 370.381, 452.700 372.983, 450.500 376.330" stroke="none" fill="black" fill-rule="evenodd"/>
</svg>