<svg xmlns="http://www.w3.org/2000/svg" width="512" height="512" viewBox="0 0 512 512" version="1.1">
	<path d="M 342 38.625 C 311.063 42.554, 287.141 53.900, 266.048 74.648 L 256.595 83.946 249.548 77.162 C 232.930 61.169, 212.127 50.269, 188.765 45.314 C 177.421 42.909, 153.579 42.909, 142.235 45.314 C 114.293 51.240, 91.179 64.933, 73.906 85.792 C 70.129 90.353, 65.212 97.160, 62.979 100.918 C 45.968 129.553, 40.535 169.383, 49.080 202.811 C 52.329 215.518, 53.593 216.796, 60.651 214.514 C 62.464 213.928, 63.430 214.737, 66.796 219.659 C 68.992 222.872, 73.311 228.271, 76.394 231.657 C 79.477 235.044, 82 238.706, 82 239.797 C 82 240.887, 78.588 245.762, 74.417 250.630 C 58.286 269.458, 48.814 287.703, 42.864 311.404 C 39.869 323.335, 39.190 347.476, 41.467 361.093 C 45.929 387.777, 58.220 411.317, 77.969 431 C 97.676 450.642, 120.296 462.302, 145.981 466.058 C 156.164 467.547, 178.680 466.801, 188.552 464.649 C 211.212 459.707, 230.284 449.011, 247.582 431.543 L 257.664 421.361 263.408 426.708 C 299.144 459.971, 351.825 467.682, 395.222 446.001 C 427.854 429.700, 451.641 398.857, 460.241 361.695 C 463.116 349.270, 463.351 323.572, 460.705 311 C 456.658 291.778, 447.147 268.862, 437.671 255.501 L 433.416 249.502 439.499 243.501 C 442.844 240.200, 447.680 234.713, 450.246 231.307 C 454.664 225.440, 455.067 225.159, 457.886 225.967 C 462.021 227.153, 463.412 225.800, 466.959 217.144 C 475.922 195.273, 478.558 181.513, 477.692 161.114 C 476.819 140.566, 472.595 124.355, 463.396 106.251 C 456.772 93.215, 450.436 84.705, 439.332 73.931 C 415.814 51.113, 388.946 39.346, 358.500 38.529 C 351.350 38.338, 343.925 38.381, 342 38.625 M 337 50.170 C 321.955 52.307, 301.418 61.058, 287.856 71.108 C 280.195 76.786, 268.840 88.475, 266.398 93.197 C 264.759 96.366, 264.789 96.554, 267.858 102.466 C 269.580 105.785, 271.644 110.188, 272.444 112.250 C 273.244 114.313, 274.349 116, 274.899 116 C 275.450 116, 279.043 112.238, 282.884 107.639 C 300.209 86.896, 318.665 75.336, 340.548 71.520 C 351.447 69.619, 357.489 69.607, 368.119 71.465 C 381.386 73.783, 395.357 79.422, 406.500 86.955 C 413.056 91.388, 413.680 91.494, 410 87.550 C 399.291 76.073, 374.879 64.743, 354.976 62.013 C 344.250 60.541, 342.799 60.071, 345.621 58.980 C 349.831 57.352, 363.702 56.833, 373.500 57.935 C 392.171 60.036, 410.047 67.856, 426.112 80.950 C 430.532 84.553, 435.561 88.625, 437.288 90 L 440.429 92.500 438.009 89 C 429.223 76.289, 408.843 61.818, 390.090 54.974 C 374.989 49.462, 354.826 47.638, 337 50.170 M 150 54.626 C 134.862 57.515, 118.877 63.733, 107.281 71.244 C 98.385 77.006, 85.598 89.094, 79.090 97.895 C 60.302 123.303, 53.749 157.573, 61.001 192.503 C 62.690 200.640, 63.438 198.493, 61.938 189.815 C 59.796 177.431, 60.441 158.131, 63.377 146.733 C 65.989 136.596, 71.223 125.232, 71.832 128.376 C 72.015 129.319, 71.437 134.458, 70.549 139.795 C 68.634 151.298, 68.181 164.539, 69.336 175.256 C 70.181 183.100, 72 185.053, 72 178.117 C 72 172.514, 74.892 156.653, 77.674 147 C 85.693 119.175, 105.169 95.053, 129.586 82.705 C 151.962 71.388, 179.852 72.243, 205.067 85.019 L 209.500 87.265 207.526 85.056 C 204.891 82.108, 194.478 76.360, 185.356 72.818 C 177.535 69.781, 162.164 67.016, 153.050 67.006 C 143.373 66.995, 151.312 63.494, 164.486 61.962 C 180.203 60.135, 200.008 63.938, 216.535 71.956 C 228.689 77.854, 235.981 83.222, 246.389 93.935 C 250.728 98.401, 254.439 101.894, 254.637 101.696 C 255.471 100.863, 248.043 91.038, 242.247 85.308 C 230.432 73.627, 211.218 62.634, 193.500 57.418 C 185.736 55.133, 182.302 54.726, 168.500 54.459 C 159.700 54.288, 151.375 54.363, 150 54.626 M 341.486 81.387 C 333.263 82.961, 324.222 86.454, 316.223 91.145 C 307.392 96.325, 292.463 111.898, 286.166 122.500 L 280.833 131.480 282.903 141.990 C 285.354 154.431, 287 167.487, 287 174.484 C 287 178.823, 287.649 180.489, 291.686 186.507 C 296.747 194.051, 304.098 201.713, 310.059 205.658 C 313.049 207.636, 314.512 207.995, 317.397 207.453 C 319.379 207.082, 321 206.358, 321 205.846 C 321 205.333, 319.250 202.571, 317.110 199.707 C 308.625 188.348, 304.986 177.608, 305.024 164.040 C 305.072 147.412, 309.290 137.478, 321.402 125.472 C 333.010 113.965, 344.493 109, 359.500 109 C 382.728 109, 404.218 125.254, 412.815 149.324 C 416.399 159.361, 416.546 174.412, 413.155 184.266 C 410.045 193.303, 404.256 201.728, 396.447 208.584 C 392.913 211.687, 390.275 214.636, 390.585 215.138 C 390.895 215.639, 394.316 217.645, 398.186 219.594 L 405.224 223.138 407.608 220.898 C 410.465 218.215, 411.500 218.974, 411.500 223.750 C 411.500 225.709, 411.976 227.475, 412.558 227.675 C 414.244 228.255, 425.632 217.374, 430.545 210.489 C 449.387 184.085, 448.367 153.754, 427.591 122.617 C 415.049 103.820, 393.569 87.916, 373.500 82.569 C 365.047 80.316, 349.980 79.760, 341.486 81.387 M 159.500 87.646 C 145.658 89.335, 138.131 91.962, 127.797 98.713 C 114.644 107.305, 103.388 122.923, 99.501 137.974 C 95.805 152.288, 98.170 172.449, 105.233 186.842 C 108.673 193.854, 118.996 205.646, 125.850 210.396 C 129.439 212.883, 130.060 212.999, 134.606 212.029 C 145.093 209.792, 144.751 210.416, 138.188 205.482 C 116.591 189.248, 110.480 161.068, 123.991 140.014 C 137.800 118.495, 165.270 110.972, 188 122.485 C 199.686 128.404, 211.154 143.598, 213.898 156.799 C 217.720 175.180, 209.600 195.164, 193.705 206.500 C 190.620 208.700, 188.074 210.752, 188.048 211.061 C 188.022 211.369, 190.363 212.226, 193.250 212.965 C 196.137 213.704, 202.325 215.852, 207 217.739 L 215.500 221.169 219.142 217.077 C 224.080 211.530, 230.410 199.084, 233.195 189.443 C 235.135 182.731, 235.490 179.176, 235.487 166.500 C 235.483 150.282, 234.391 144.573, 228.958 132.363 C 222.655 118.195, 208.268 102.528, 195.360 95.774 C 184.046 89.853, 169.127 86.472, 159.500 87.646 M 445.038 108.283 C 445.017 108.714, 446.062 111.189, 447.360 113.783 C 450.251 119.560, 456.390 138.034, 458.540 147.424 C 459.411 151.232, 460.138 158.882, 460.154 164.424 C 460.209 182.673, 455.431 196.786, 442.696 216 L 439.713 220.500 444.912 215.500 C 459.158 201.801, 465.740 183.247, 464.753 159.566 C 464.142 144.897, 461.370 133.435, 455.911 123 C 452.327 116.151, 445.128 106.406, 445.038 108.283 M 257.557 126.755 C 261.284 135.981, 266.920 157.737, 268.112 167.500 C 270.561 187.545, 265.551 207.712, 253.924 224.610 C 250.085 230.191, 251.798 230.263, 257.276 224.750 C 261.792 220.206, 266.739 210.946, 269.429 202 C 271.692 194.478, 273.988 178.871, 273.990 171 C 273.994 158.533, 270.217 141.122, 265.553 132.103 C 263.721 128.559, 257.216 121, 256 121 C 255.578 121, 256.279 123.590, 257.557 126.755 M 157 132.601 C 149.765 134.534, 141.851 139.875, 137.504 145.757 C 124.917 162.791, 131.702 186.966, 151.783 196.640 C 156.507 198.916, 158.889 199.403, 165.500 199.447 C 172.307 199.492, 174.352 199.081, 179.218 196.692 C 186.734 193.001, 192.968 186.809, 196.562 179.463 C 202.280 167.777, 199.854 153.485, 190.370 142.988 C 185.320 137.398, 180.304 134.314, 173.289 132.487 C 166.373 130.686, 164.110 130.702, 157 132.601 M 329.309 140.078 C 325.349 142.614, 321 151.077, 321 156.246 C 321 160.733, 323.420 166, 325.480 166 C 326.344 166, 327.178 164.517, 327.589 162.250 C 328.988 154.537, 331.004 151.169, 336.099 148.034 C 341.291 144.840, 342.253 142.395, 339.429 139.571 C 337.277 137.420, 333.134 137.627, 329.309 140.078 M 158.239 145.335 C 153.334 147.114, 148.247 151.595, 145.892 156.212 C 144.227 159.476, 143.872 161.651, 144.190 166.647 C 144.933 178.304, 153.290 186, 165.207 186 C 171.801 186, 175.807 184.369, 180.835 179.638 C 185.452 175.294, 187.109 171.705, 187.154 165.952 C 187.269 151.102, 172.120 140.301, 158.239 145.335 M 157.923 157.923 C 149.094 166.752, 160.782 178.698, 171.723 172.027 C 179.923 167.028, 175.370 155, 165.277 155 C 161.713 155, 160.274 155.572, 157.923 157.923 M 243.387 182.607 C 240.839 189.916, 232.023 205.948, 226.462 213.385 C 221.398 220.158, 220.137 222.472, 221.159 223.120 C 223.223 224.427, 223.515 224.279, 227.432 219.943 C 235.725 210.765, 242.189 197.941, 243.870 187.338 C 244.811 181.403, 244.583 179.176, 243.387 182.607 M 251.628 190.500 C 250.278 195.695, 243.495 209.339, 238.021 217.873 C 235.123 222.390, 232.979 226.312, 233.255 226.589 C 234.278 227.611, 244.204 215.304, 247.037 209.500 C 250.234 202.952, 253.347 191.940, 252.771 189.215 C 252.529 188.072, 252.148 188.501, 251.628 190.500 M 281.015 209.531 C 279.753 213.364, 277.915 218.576, 276.929 221.113 L 275.137 225.726 283.228 220.863 C 287.678 218.188, 291.697 216, 292.160 216 C 294.157 216, 292.663 213.005, 288.155 207.971 L 283.309 202.561 281.015 209.531 M 324.818 210.438 C 310.522 212.955, 293.884 219.490, 283.428 226.694 C 276.955 231.155, 262.769 243.099, 259.620 246.742 C 255.071 252.002, 257.394 251.754, 263.310 246.348 C 270.027 240.209, 284.498 230.266, 292.777 226.101 C 306.674 219.111, 327.718 214, 342.604 214 C 366.268 214, 391.236 222.546, 411.075 237.435 C 418.814 243.243, 431.558 255.698, 439.831 265.538 C 441.958 268.069, 441.341 266.788, 438.121 261.989 C 431.411 251.989, 418.468 238.961, 407.458 231.123 C 396.447 223.284, 379.178 214.772, 368.500 211.918 C 358.308 209.195, 336.144 208.444, 324.818 210.438 M 142.422 215.561 C 126.497 218.238, 107.007 227.116, 91.491 238.761 C 80.325 247.141, 59.165 271.498, 61.244 273.578 C 61.460 273.793, 63.705 271.153, 66.233 267.710 C 72.768 258.810, 87.040 245.410, 97.111 238.721 C 143.418 207.960, 197 211.652, 241 248.634 C 275.745 277.838, 291.480 327.639, 280.453 373.500 C 276.977 387.955, 276.568 390.839, 279.033 383.500 C 283.402 370.491, 285.066 361.441, 285.651 347.500 C 287.499 303.521, 270.069 266.419, 235.294 240.304 C 220.980 229.555, 213.054 225.188, 198.621 220.097 C 181.715 214.134, 160.906 212.455, 142.422 215.561 M 333 230.985 C 310.608 233.794, 287.011 246.353, 273.665 262.563 C 268.973 268.263, 268.254 270.273, 269.951 272.955 C 270.679 274.106, 272.756 272.592, 279.893 265.712 C 295.910 250.272, 310.519 242.557, 329.687 239.416 C 347.744 236.457, 364.984 239.240, 382.500 247.941 C 411.246 262.222, 431.187 292.193, 435.154 327.077 C 436.352 337.613, 435.377 350.011, 432.407 362 C 429.936 371.974, 422.084 387.557, 415.139 396.269 C 403.498 410.872, 382.506 424.480, 364.500 429.095 C 353.775 431.844, 334.631 432.042, 324.009 429.514 C 308.605 425.846, 292.916 417.372, 280.851 406.201 C 275.968 401.681, 274.733 400.977, 273.492 402.007 C 271.001 404.074, 271.791 406.553, 276.250 410.657 C 301.886 434.250, 336.781 444.083, 366 435.946 C 403.039 425.632, 432.516 394.317, 440.200 357.119 C 443.049 343.327, 442.331 321.496, 438.588 308.107 C 433.398 289.541, 425.104 275.125, 411.578 261.159 C 390.434 239.325, 359.920 227.608, 333 230.985 M 144 236.499 C 111.223 243.806, 84.253 265.225, 69.967 295.294 C 46.396 344.905, 64.515 404.154, 111.862 432.291 C 128.925 442.430, 143.132 446.402, 162.500 446.448 C 179.546 446.488, 187.899 444.506, 204.629 436.449 C 239.610 419.604, 259.925 390.803, 264.122 352.104 C 266.804 327.370, 260.111 301.007, 245.947 280.518 C 240.016 271.937, 226.049 258.161, 217.698 252.651 C 209.359 247.150, 194.774 240.486, 185.500 237.938 C 175.138 235.092, 153.654 234.347, 144 236.499 M 254.512 240.977 C 253.614 242.714, 253.021 244.871, 253.195 245.772 C 253.451 247.104, 254.130 246.855, 256.839 244.435 C 260.151 241.476, 260.157 241.452, 258.156 239.641 C 256.190 237.862, 256.107 237.893, 254.512 240.977 M 146.342 244.418 C 115.174 250.342, 88.553 271.387, 74.578 301.148 C 68.112 314.920, 65.689 325.755, 65.666 341 C 65.640 358.818, 68.586 371.380, 76.317 386.406 C 89.388 411.810, 114.146 431.244, 141.575 437.631 C 153.892 440.499, 172.681 440.103, 185.176 436.712 C 220.856 427.030, 246.975 401.397, 256.210 367 C 258.165 359.718, 258.478 356.207, 258.397 342.500 C 258.313 328.450, 257.975 325.295, 255.619 316.616 C 250.509 297.784, 242.204 283.381, 229.202 270.801 C 216.487 258.499, 203.116 250.640, 186.933 245.958 C 177.419 243.205, 156.832 242.424, 146.342 244.418 M 329.500 249.429 C 318.126 251.680, 310.322 255.014, 299.909 262.070 C 293.876 266.158, 284.101 275.378, 279.743 281.093 L 277.037 284.641 280.109 292.570 C 285.596 306.730, 288.074 319.734, 288.668 337.500 C 289.131 351.319, 288.913 354.903, 287.074 363.794 C 285.902 369.456, 283.603 377.466, 281.963 381.593 C 278.554 390.175, 278.643 390.572, 285.335 396.741 C 311.215 420.597, 342.214 427.779, 370.482 416.471 C 393.065 407.436, 411.319 389.022, 418.695 367.835 C 435.986 318.167, 410.231 264.301, 362.829 250.993 C 353.306 248.320, 338.593 247.629, 329.500 249.429 M 147 254.447 C 114.794 261.369, 87.175 287.355, 78.922 318.500 C 76.412 327.973, 75.886 347.011, 77.872 356.500 C 84.095 386.234, 101.466 409.034, 127.347 421.436 C 140.097 427.546, 148.008 429.331, 162 429.255 C 175.295 429.183, 185.276 426.970, 196.691 421.561 C 234.582 403.610, 254.343 365.197, 246.106 325.500 C 239.012 291.306, 215.396 264.939, 183.829 255.968 C 174.281 253.255, 156.052 252.502, 147 254.447 M 153.896 285.048 C 131.443 288.427, 111.465 307.897, 106.962 330.790 C 105.175 339.870, 106.189 353.930, 109.223 362.146 C 115.459 379.038, 131.709 394.174, 148.368 398.610 C 154.971 400.368, 169.044 400.364, 175.661 398.602 C 193.717 393.795, 207.937 380.740, 215.322 362.191 C 218.079 355.267, 218.386 353.403, 218.405 343.500 C 218.422 334.534, 218 331.298, 216.125 326 C 209.453 307.151, 193.450 291.463, 176 286.665 C 168.541 284.614, 160.628 284.035, 153.896 285.048 M 339.500 317.412 C 328.300 322.389, 327.841 336.034, 338.718 340.638 C 343.087 342.487, 345.639 342.353, 350.456 340.021 C 360.367 335.223, 360.444 322.814, 350.591 318.044 C 345.711 315.682, 343.656 315.564, 339.500 317.412 M 130.667 319.667 C 129.177 321.156, 130.050 325.956, 132 327 C 134.241 328.199, 137.912 326.828, 138.118 324.715 C 138.347 322.372, 137.790 320.493, 136.650 319.765 C 135.206 318.843, 131.551 318.782, 130.667 319.667 M 267.750 403.901 C 264.055 410.477, 264.280 411.707, 268.074 405.665 C 269.744 403.005, 270.973 400.419, 270.805 399.918 C 270.637 399.417, 269.262 401.210, 267.750 403.901" stroke="none" fill="black" fill-rule="evenodd"/>
</svg>