<svg xmlns="http://www.w3.org/2000/svg" width="512" height="512" viewBox="0 0 512 512" version="1.1">
	<path d="M 0 256.002 L 0 512.004 256.250 511.752 L 512.500 511.500 512.752 255.750 L 513.004 0 256.502 0 L 0 0 0 256.002 M 0.492 256.500 C 0.492 397.300, 0.608 454.751, 0.750 384.170 C 0.892 313.588, 0.892 198.388, 0.750 128.170 C 0.608 57.951, 0.492 115.700, 0.492 256.500 M 92 59.060 C 87.325 59.480, 82.137 60.254, 80.472 60.779 C 68.706 64.487, 59.724 73.827, 55.968 86.261 C 55.509 87.779, 55.050 116.129, 54.949 149.261 L 54.764 209.500 57.045 215.500 C 58.712 219.886, 60.962 223.137, 65.412 227.588 C 73.772 235.947, 79.275 237.945, 97 239.056 C 114.960 240.181, 181.092 240.179, 192.737 239.052 C 210.513 237.332, 222.225 228.706, 227.336 213.572 C 228.786 209.276, 228.988 203.434, 228.909 168.072 C 228.859 145.757, 228.503 118.500, 228.119 107.500 C 227.450 88.366, 227.296 87.228, 224.559 81.218 C 219.007 69.026, 207.662 61.245, 192.172 59.005 C 184.427 57.884, 104.572 57.928, 92 59.060 M 322.500 59.022 C 317.550 59.456, 312.137 60.244, 310.472 60.773 C 297.219 64.977, 287.532 75.649, 285.039 88.792 C 284.500 91.636, 284.031 119.303, 283.972 151.685 C 283.857 215.079, 283.713 213.362, 289.928 222.396 C 293.503 227.591, 297.757 231.324, 303.384 234.200 C 312.820 239.025, 314.900 239.218, 363 239.724 C 411.872 240.237, 424.811 239.562, 434.285 236.003 C 442.332 232.980, 450.833 224.937, 454.599 216.782 L 457.500 210.500 457.500 150.500 C 457.500 93.805, 457.393 90.174, 455.559 84.577 C 451.969 73.625, 442.817 64.756, 431 60.779 C 424.719 58.666, 422.930 58.586, 378 58.412 C 352.425 58.313, 327.450 58.588, 322.500 59.022 M 85.500 61.520 C 82.200 62.263, 78.989 62.900, 78.364 62.936 C 75.810 63.080, 65.104 71.245, 62.694 74.886 C 59.099 80.318, 56.812 87.880, 57.185 93.097 L 57.500 97.500 60.354 89.742 C 63.800 80.378, 69.542 73.532, 77.403 69.416 C 82.361 66.820, 83.190 66.667, 86.258 67.776 C 90.658 69.367, 168.045 69.466, 185.179 67.903 C 195.902 66.924, 197.706 66.995, 201.851 68.557 C 212.342 72.510, 218.168 78.579, 222.646 90.219 L 225.062 96.500 224.664 89.971 C 223.787 75.593, 212.989 64.646, 196.201 61.115 C 188.066 59.404, 93.352 59.750, 85.500 61.520 M 320.500 60.635 C 319.400 60.857, 315.853 61.554, 312.617 62.184 C 305.550 63.560, 296.458 69.286, 292.687 74.735 C 289.328 79.589, 287.139 85.877, 286.363 92.901 C 285.663 99.236, 286.960 99.040, 289.016 92.500 C 291.379 84.982, 294.888 79.286, 299.973 74.714 C 306.561 68.791, 312.688 66.347, 317.097 67.884 C 321.486 69.414, 405.439 69.397, 418.925 67.863 C 428.806 66.740, 428.982 66.757, 434.210 69.373 C 437.120 70.829, 440.440 72.816, 441.588 73.789 C 445.665 77.243, 450.676 84.771, 451.966 89.378 C 453.926 96.380, 455.406 96.403, 454.533 89.418 C 453.537 81.442, 450.762 75.986, 444.927 70.529 C 439.374 65.334, 433.746 62.609, 425.378 61.062 C 419.961 60.061, 325.261 59.675, 320.500 60.635 M 125.112 90.522 C 104.565 96.272, 88.567 111.860, 82.612 131.932 C 81.725 134.919, 81 138.856, 81 140.682 L 81 144 132.849 144 C 161.366 144, 188.169 143.707, 192.411 143.348 L 200.124 142.696 199.445 138.598 C 196.075 118.269, 179.726 99.162, 159.432 91.835 C 151.604 89.008, 133.056 88.299, 125.112 90.522 M 355 90.576 C 338.008 95.039, 324.190 106.443, 316.595 122.273 C 312.299 131.227, 309.398 141.217, 310.552 143.084 C 311.192 144.120, 412.558 144.358, 423.250 143.348 C 431.269 142.591, 431.354 142.340, 427.596 130.504 C 421.558 111.492, 404.955 95.532, 385.955 90.475 C 379 88.625, 362.223 88.679, 355 90.576 M 252.689 104 C 252.308 104.825, 251.885 140.150, 251.748 182.500 L 251.500 259.500 153 260.007 C 98.825 260.286, 58.325 260.709, 63 260.946 L 71.500 261.378 62.500 261.939 C 57.550 262.248, 97.778 262.626, 151.895 262.781 C 206.013 262.935, 250.675 263.299, 251.145 263.590 C 251.615 263.880, 252.055 302.904, 252.122 350.309 C 252.220 419.164, 252.478 435.193, 253.407 430 C 254.381 424.556, 254.697 423.906, 255.352 426 C 255.804 427.444, 256.351 427.976, 256.648 427.259 C 257.045 426.298, 257.470 426.327, 258.534 427.391 C 259.372 428.229, 260.043 431.638, 260.255 436.132 C 260.446 440.185, 260.692 403.161, 260.801 353.857 C 260.980 273.154, 261.158 264.153, 262.582 263.607 C 263.452 263.273, 288.989 262.943, 319.332 262.874 C 349.674 262.805, 381.025 262.468, 389 262.124 L 403.500 261.500 384.500 260.753 C 374.050 260.342, 341.988 260.004, 313.250 260.003 L 261 260 261 189.167 C 261 112.250, 260.670 106.364, 256.414 107.432 C 254.506 107.911, 254.072 107.555, 253.757 105.252 C 253.491 103.307, 253.178 102.940, 252.689 104 M 105.250 153.743 L 81 154.036 81 158.980 C 81 170.987, 89.282 187.563, 100.233 197.473 C 111.600 207.759, 125.141 212.970, 140.500 212.970 C 169.013 212.970, 192.482 194.538, 198.553 167.375 C 199.429 163.456, 200 158.731, 199.823 156.875 L 199.500 153.500 164.500 153.475 C 145.250 153.461, 118.588 153.582, 105.250 153.743 M 367.250 153.750 L 311 154.017 311 158.457 C 311 164.965, 315.444 177.939, 320.019 184.791 C 325.472 192.956, 336.450 203.070, 343.906 206.795 C 367.127 218.399, 396.257 213.227, 413.966 194.358 C 423.122 184.602, 427.809 175.063, 429.963 161.806 C 430.857 156.300, 430.773 155.341, 429.302 154.250 C 428.376 153.563, 426.691 153.109, 425.559 153.242 C 424.426 153.374, 398.188 153.603, 367.250 153.750 M 479.443 229.500 C 479.443 246, 479.580 252.890, 479.748 244.812 C 479.915 236.733, 479.916 223.233, 479.748 214.812 C 479.581 206.390, 479.444 213, 479.443 229.500 M 33.333 261.500 C 33.333 262.748, 35.028 262.965, 43.417 262.792 L 53.500 262.585 44 262.081 L 34.500 261.576 44 260.980 L 53.500 260.383 43.417 260.191 C 35.035 260.032, 33.333 260.253, 33.333 261.500 M 479.411 284 C 479.411 293.625, 479.561 297.563, 479.745 292.750 C 479.928 287.938, 479.928 280.063, 479.745 275.250 C 479.561 270.438, 479.411 274.375, 479.411 284 M 98 286.920 C 82.215 287.937, 74.710 290.523, 67.102 297.566 C 63.141 301.233, 60.382 304.928, 58.401 309.218 L 55.500 315.500 55.500 379.500 L 55.500 443.500 58.094 449 C 63.662 460.804, 75.064 468.290, 90.107 470.020 C 101.013 471.274, 187.248 471.230, 196.991 469.966 C 210.475 468.217, 220.280 461.140, 225.796 449.175 C 229.163 441.871, 229.354 435.489, 228.266 366.500 C 227.473 316.203, 227.375 314.344, 225.279 309.749 C 220.484 299.237, 209.111 290.665, 196.349 287.942 C 190.432 286.680, 114.050 285.886, 98 286.920 M 330 286.964 C 309.936 288.240, 301.139 291.491, 293.132 300.587 C 290.896 303.127, 288.039 307.747, 286.783 310.853 L 284.500 316.500 284.500 380 L 284.500 443.500 287.657 449.537 C 294.107 461.872, 304.717 468.548, 320.263 470.052 C 332.582 471.244, 416.543 471.192, 425.827 469.987 C 439.127 468.260, 449.327 460.930, 454.865 449.120 L 457.500 443.500 457.787 386 C 457.944 354.375, 457.665 325.125, 457.166 321 C 456.667 316.875, 455.203 311.250, 453.911 308.500 C 451.116 302.547, 443.876 294.998, 438.169 292.086 C 428.641 287.225, 424.981 286.858, 382.500 286.503 C 360.500 286.319, 336.875 286.526, 330 286.964 M 92.500 288.626 C 91.400 288.842, 88.025 289.519, 85 290.128 C 69.425 293.267, 58.556 305.148, 57.263 320.447 C 56.664 327.542, 57.902 327.127, 60.409 319.395 C 63.758 309.066, 70.569 301.334, 80.062 297.084 C 83.179 295.688, 84.974 295.420, 86.729 296.087 C 90.247 297.425, 179.846 297.259, 189 295.898 C 195.912 294.870, 196.970 294.961, 202.493 297.054 C 210.619 300.134, 218.856 308.327, 221.837 316.295 C 223.027 319.474, 224 322.733, 224 323.538 C 224 324.342, 224.508 325, 225.129 325 C 226.833 325, 225.267 313.546, 222.864 308.434 C 218.258 298.634, 206.591 290.932, 193.500 289.047 C 186.978 288.108, 97.033 287.733, 92.500 288.626 M 321.772 289.047 C 298.653 291.740, 285.291 305.353, 286.973 324.500 C 287.070 325.600, 288.209 323.467, 289.506 319.759 C 293.502 308.328, 298.824 302.306, 309.163 297.516 C 313.144 295.672, 314.789 295.379, 316.949 296.132 C 319.144 296.897, 405.900 296.711, 426.621 295.897 C 436.119 295.523, 447.980 305.808, 452.428 318.275 L 455.006 325.500 454.632 318.923 C 454.426 315.306, 453.479 310.704, 452.527 308.698 C 447.663 298.448, 436.475 290.868, 423.500 289.031 C 415.339 287.875, 331.713 287.889, 321.772 289.047 M 132.500 317.634 C 112.810 320.664, 95.506 333.039, 87.121 350.086 C 83.101 358.258, 80.020 369.354, 81.390 370.724 C 82.392 371.725, 199.350 371.007, 200.387 369.993 C 200.902 369.490, 200.161 365.552, 198.626 360.629 C 192.487 340.939, 176.806 325.472, 157.032 319.601 C 151.367 317.920, 137.742 316.827, 132.500 317.634 M 361.500 317.632 C 338.530 321.183, 319.303 337.169, 312.083 358.718 C 310.938 362.139, 310 366.301, 310 367.968 C 310 370.574, 310.387 371.020, 312.750 371.145 C 318.609 371.454, 429.522 370.763, 429.893 370.416 C 431.005 369.374, 427.533 357.520, 424.059 350.500 C 414.244 330.664, 395.256 318.267, 373.500 317.489 C 368.550 317.313, 363.150 317.377, 361.500 317.632 M 81.441 382.096 C 81.068 382.699, 81.071 385.908, 81.446 389.229 C 84.145 413.083, 103.211 434.321, 127.460 440.485 C 135.119 442.432, 148.946 442.426, 156.448 440.472 C 175.841 435.420, 194.022 417.744, 198.981 399.120 C 200.796 392.303, 201.965 384.072, 201.347 382.461 C 200.864 381.202, 192.576 381, 141.452 381 C 99.512 381, 81.919 381.321, 81.441 382.096 M 311.101 381.912 C 309.183 383.132, 310.303 392.193, 313.510 401.416 C 319.404 418.363, 334.026 432.862, 351.568 439.150 C 358.965 441.801, 375.030 442.758, 383.305 441.040 C 407.766 435.962, 428.977 411.530, 430.221 387 L 430.500 381.500 371.500 381.261 C 338.249 381.126, 311.889 381.410, 311.101 381.912 M 234.395 483.756 C 235.916 484.114, 236.014 484.377, 234.895 485.086 C 233.764 485.802, 233.815 485.972, 235.167 485.985 C 236.083 485.993, 236.993 485.522, 237.187 484.938 C 237.437 484.189, 238.372 484.191, 240.355 484.945 C 241.902 485.533, 243.580 485.760, 244.084 485.448 C 244.588 485.137, 245 485.385, 245 486 C 245 486.615, 245.450 486.840, 246 486.500 C 246.550 486.160, 247 486.359, 247 486.941 C 247 487.523, 247.408 488, 247.906 488 C 248.405 488, 248.577 487.100, 248.290 486 C 247.904 484.525, 248.256 484.004, 249.633 484.015 C 250.872 484.025, 251.097 484.287, 250.303 484.792 C 248.545 485.909, 250.357 488.232, 253.140 488.431 C 254.438 488.523, 256.746 488.268, 258.269 487.864 C 259.950 487.417, 260.808 487.502, 260.451 488.079 C 259.939 488.908, 268.489 488.694, 275.500 487.702 C 276.600 487.547, 278.962 487.728, 280.750 488.104 C 283.234 488.628, 284 488.449, 284 487.344 C 284 484.009, 278.191 483.189, 255 483.251 C 242.625 483.284, 233.353 483.511, 234.395 483.756 M 231 485.059 C 231 485.641, 230.480 485.797, 229.845 485.405 C 229.146 484.972, 228.962 485.129, 229.378 485.802 C 229.755 486.413, 230.722 486.660, 231.526 486.352 C 232.331 486.043, 232.740 485.388, 232.435 484.895 C 231.688 483.687, 231 483.765, 231 485.059" stroke="none" fill="black" fill-rule="evenodd"/>
</svg>