<svg xmlns="http://www.w3.org/2000/svg" width="512" height="512" viewBox="0 0 512 512" version="1.1">
	<path d="M 15.637 5.445 C 9.736 8.335, 4.484 13.221, 1.912 18.210 C 0.045 21.833, 0 27.486, 0.004 258.210 L 0.007 494.500 2.106 498 C 4.979 502.793, 8.792 506.774, 13.230 509.613 L 16.960 512 254.284 512 L 491.607 512 496.818 509.404 C 502.544 506.550, 509.295 498.360, 510.606 492.675 C 511.332 489.532, 511.346 489.525, 512.070 492 C 512.472 493.375, 512.775 387.625, 512.743 257 C 512.712 126.375, 512.377 21.750, 512 24.500 C 511.623 27.250, 511.244 28.334, 511.157 26.910 C 511.071 25.485, 509.589 21.495, 507.864 18.043 C 504.620 11.551, 499.340 6.780, 492.684 4.326 C 490.282 3.440, 431.924 3.141, 255 3.107 L 20.500 3.063 15.637 5.445 M 18.935 15.265 C 17.087 16.510, 14.208 19.474, 12.537 21.851 L 9.500 26.172 9.244 257.380 L 8.987 488.589 11.940 493.245 C 13.564 495.806, 16.797 499.161, 19.124 500.700 L 23.354 503.500 254.427 503.500 L 485.500 503.500 489.595 501.309 C 494.912 498.464, 499.749 492.896, 500.487 488.771 C 500.809 486.972, 500.943 381.926, 500.786 255.336 L 500.500 25.172 497.500 20.940 C 495.850 18.612, 492.932 15.873, 491.016 14.853 C 487.652 13.064, 479.481 13, 254.913 13 L 22.296 13 18.935 15.265 M 0.492 258 C 0.492 388.625, 0.608 442.062, 0.750 376.750 C 0.892 311.437, 0.892 204.562, 0.750 139.250 C 0.608 73.937, 0.492 127.375, 0.492 258 M 235 60.022 C 208.705 63.681, 183.650 72.625, 161 86.437 C 113.254 115.552, 82.113 162.045, 71.875 219.500 C 69.969 230.192, 69.555 236.051, 69.541 252.500 C 69.522 274.004, 70.289 280.396, 75.093 298.774 C 82.558 327.334, 98.655 356.450, 120.829 381.500 C 134.630 397.091, 156.823 413.839, 176.360 423.406 C 188.658 429.428, 210.034 436.403, 222.500 438.461 C 240.603 441.449, 239.744 440.888, 244.965 453.136 C 250.501 466.121, 252.075 468.569, 254.330 467.704 C 255.257 467.348, 258.728 461.402, 262.043 454.491 C 266.184 445.859, 268.765 441.642, 270.286 441.023 C 271.504 440.527, 276.325 439.617, 281 439 C 307.180 435.546, 332.256 426.365, 353.888 412.314 C 397.062 384.269, 429.326 337.333, 439.019 288.470 C 441.834 274.279, 442.779 248.140, 441.017 233.201 C 437.834 206.214, 427.093 174.905, 412.854 151.115 C 390.179 113.227, 351.121 81.335, 311.162 68.077 C 293.690 62.280, 279.468 59.919, 259.500 59.498 C 249.600 59.289, 238.575 59.525, 235 60.022 M 241.484 74.058 C 207.858 76.653, 171.520 92.938, 141.816 118.725 C 103.351 152.117, 79.535 211.038, 83.950 261.883 C 86.847 295.251, 95.688 320.629, 113.965 348.044 C 139.544 386.411, 174.940 411.830, 217.500 422.394 C 220.800 423.213, 226.313 424.193, 229.750 424.571 C 235.701 425.225, 236 425.155, 236 423.097 C 236 419.723, 233.524 414.761, 230.357 411.787 C 228.053 409.623, 224.838 408.481, 214.484 406.146 C 207.343 404.536, 198.004 402.044, 193.732 400.610 C 160.326 389.395, 131.073 361.992, 112.481 324.500 C 90.824 280.827, 87.928 244.540, 102.564 200.244 C 107.316 185.862, 118.477 163.560, 126.451 152.511 C 149.782 120.184, 185.097 96.763, 223.911 87.876 C 235.286 85.271, 259.104 84.335, 272.971 85.948 C 308.600 90.091, 340.357 105.984, 367 133.005 C 394.001 160.390, 412.773 200.105, 417.101 238.999 C 420.751 271.807, 409.462 311.768, 386.871 346 C 379.277 357.507, 359.853 377.274, 349.165 384.370 C 331.628 396.015, 314.938 402.993, 295.237 406.917 C 289.593 408.042, 283.674 409.634, 282.084 410.457 C 278.956 412.074, 275.644 416.857, 274.609 421.250 C 273.966 423.984, 273.992 424, 279.231 423.999 C 285.962 423.997, 302.481 420.002, 313.746 415.651 C 352.728 400.597, 384.289 373.173, 405.584 335.853 C 417.112 315.649, 423.810 295.237, 426.535 272.006 C 429.077 250.325, 427.993 234.237, 422.522 212.500 C 411.354 168.121, 388.828 133.489, 354.239 107.518 C 328.163 87.939, 299.496 76.823, 267.860 74.023 C 255.529 72.931, 256.090 72.930, 241.484 74.058 M 240.113 144.067 C 232.263 145.460, 217.342 150.643, 211 154.179 C 196.399 162.319, 183.693 174.266, 174.285 188.698 C 163.293 205.563, 158.232 221.307, 157.287 241.583 C 155.260 285.052, 178.070 324.302, 215.374 341.537 C 229.365 348.001, 237.326 349.509, 257 349.424 C 273.008 349.354, 275.250 349.118, 283.297 346.664 C 300.246 341.496, 312.572 333.613, 325.745 319.522 C 337.843 306.579, 346.441 290.313, 351.229 271.307 C 353.081 263.958, 353.438 259.851, 353.387 246.500 C 353.321 229.075, 352.258 223.370, 346.115 207.469 C 334.650 177.790, 308.447 153.576, 279.500 145.910 C 270.346 143.485, 249.013 142.487, 240.113 144.067 M 247 182.630 C 227.622 186.347, 210.208 199.628, 201.277 217.500 C 195.401 229.259, 194.498 233.332, 194.520 248 C 194.538 260.193, 194.812 262.273, 197.344 269.490 C 206.121 294.506, 226.645 310.712, 252.044 312.680 C 272.517 314.267, 294.579 304.046, 307.035 287.206 C 325.767 261.879, 323.516 227.157, 301.531 202.299 C 295.466 195.442, 283.549 187.574, 275.206 184.919 C 268.647 182.833, 252.693 181.538, 247 182.630 M 247 198.343 C 239.298 200.165, 235.372 202.051, 228.751 207.109 C 215.151 217.496, 208.048 233.883, 209.292 252 C 210.937 275.961, 229.459 295.129, 252.527 296.743 C 272.252 298.123, 290.888 286.913, 299.760 268.332 C 303.468 260.567, 303.500 260.393, 303.480 248 C 303.463 237.372, 303.121 234.653, 301.195 229.848 C 291.912 206.687, 268.720 193.205, 247 198.343" stroke="none" fill="black" fill-rule="evenodd"/>
</svg>